<svg width="6em" height="6em" viewBox="0 0 174 173" fill="none" xmlns="http://www.w3.org/2000/svg">
<g clip-path="url(#clip0_1564_12329)">
<path
      d="M26.5176 2.87207C26.5176 3.03258 26.4584 3.04102 24.8281 3.04102C23.1978 3.04102 23.1387 3.04947 23.1387 3.20996C23.1387 3.37047 23.0795 3.37891 22.2939 3.37891C21.5083 3.37891 21.4492 3.38736 21.4492 3.54785C21.4492 3.69991 21.3901 3.7168 20.7734 3.7168C20.1568 3.7168 20.0977 3.7337 20.0977 3.88574C20.0977 4.0378 20.0385 4.05469 19.4219 4.05469C18.8052 4.05469 18.7461 4.07159 18.7461 4.22363C18.7461 4.36725 18.687 4.39258 18.4082 4.39258C18.1294 4.39258 18.0703 4.41792 18.0703 4.56152C18.0703 4.71358 18.0112 4.73047 17.5635 4.73047C17.1158 4.73047 17.0566 4.74738 17.0566 4.89941C17.0566 5.04303 16.9975 5.06836 16.7188 5.06836C16.44 5.06836 16.3809 5.0937 16.3809 5.2373C16.3809 5.38092 16.3217 5.40625 16.043 5.40625C15.7642 5.40625 15.7051 5.43159 15.7051 5.5752C15.7051 5.71881 15.6459 5.74414 15.3672 5.74414C15.0884 5.74414 15.0293 5.76949 15.0293 5.91309C15.0293 6.0567 14.9702 6.08203 14.6914 6.08203C14.4126 6.08203 14.3535 6.10738 14.3535 6.25098C14.3535 6.39459 14.2944 6.41992 14.0156 6.41992C13.7369 6.41992 13.6777 6.44527 13.6777 6.58887C13.6777 6.73248 13.6186 6.75781 13.3398 6.75781C13.0611 6.75781 13.002 6.78316 13.002 6.92676C13.002 7.03658 12.9428 7.0957 12.833 7.0957C12.7232 7.0957 12.6641 7.15485 12.6641 7.26465C12.6641 7.40826 12.6049 7.43359 12.3262 7.43359C12.0474 7.43359 11.9883 7.45894 11.9883 7.60254C11.9883 7.71236 11.9291 7.77148 11.8193 7.77148C11.7095 7.77148 11.6504 7.83063 11.6504 7.94043C11.6504 8.08405 11.5913 8.10938 11.3125 8.10938C11.0337 8.10938 10.9746 8.13472 10.9746 8.27832C10.9746 8.38814 10.9155 8.44727 10.8057 8.44727C10.6958 8.44727 10.6367 8.50641 10.6367 8.61621C10.6367 8.72603 10.5776 8.78516 10.4678 8.78516C10.358 8.78516 10.2988 8.8443 10.2988 8.9541C10.2988 9.06392 10.2397 9.12305 10.1299 9.12305C10.0201 9.12305 9.96094 9.18219 9.96094 9.29199C9.96094 9.40181 9.90181 9.46094 9.79199 9.46094C9.68218 9.46094 9.62305 9.52008 9.62305 9.62988C9.62305 9.7735 9.56392 9.79883 9.28516 9.79883C9.0064 9.79883 8.94727 9.82417 8.94727 9.96777C8.94727 10.0776 8.88813 10.1367 8.77832 10.1367C8.66851 10.1367 8.60938 10.1959 8.60938 10.3057C8.60938 10.4155 8.55024 10.4746 8.44043 10.4746C8.33062 10.4746 8.27148 10.5338 8.27148 10.6436C8.27148 10.7534 8.21235 10.8125 8.10254 10.8125C7.99272 10.8125 7.93359 10.8716 7.93359 10.9814C7.93359 11.0913 7.87446 11.1504 7.76465 11.1504C7.65483 11.1504 7.5957 11.2095 7.5957 11.3193C7.5957 11.4292 7.53657 11.4883 7.42676 11.4883C7.28315 11.4883 7.25781 11.5474 7.25781 11.8262C7.25781 12.1049 7.23247 12.1641 7.08887 12.1641C6.97905 12.1641 6.91992 12.2232 6.91992 12.333C6.91992 12.4428 6.86079 12.502 6.75098 12.502C6.64116 12.502 6.58203 12.5611 6.58203 12.6709C6.58203 12.7807 6.5229 12.8398 6.41309 12.8398C6.30327 12.8398 6.24414 12.899 6.24414 13.0088C6.24414 13.1186 6.18501 13.1777 6.07519 13.1777C5.93159 13.1777 5.90625 13.2369 5.90625 13.5156C5.90625 13.7944 5.88091 13.8535 5.7373 13.8535C5.62749 13.8535 5.56836 13.9127 5.56836 14.0225C5.56836 14.1323 5.50923 14.1914 5.39941 14.1914C5.2896 14.1914 5.23047 14.2505 5.23047 14.3604C5.23047 14.4702 5.17134 14.5293 5.06152 14.5293C4.91792 14.5293 4.89258 14.5884 4.89258 14.8672C4.89258 15.146 4.86724 15.2051 4.72363 15.2051C4.61382 15.2051 4.55469 15.2642 4.55469 15.374C4.55469 15.4838 4.49556 15.543 4.38574 15.543C4.24214 15.543 4.2168 15.6021 4.2168 15.8809C4.2168 16.1596 4.19145 16.2188 4.04785 16.2188C3.90425 16.2188 3.87891 16.2779 3.87891 16.5566C3.87891 16.8354 3.85356 16.8945 3.70996 16.8945C3.56636 16.8945 3.54102 16.9537 3.54102 17.2324C3.54102 17.5112 3.51567 17.5703 3.37207 17.5703C3.22847 17.5703 3.20312 17.6295 3.20312 17.9082C3.20312 18.187 3.17778 18.2461 3.03418 18.2461C2.89058 18.2461 2.86523 18.3052 2.86523 18.584C2.86523 18.8627 2.83989 18.9219 2.69629 18.9219C2.55269 18.9219 2.52734 18.981 2.52734 19.2598C2.52734 19.5385 2.502 19.5977 2.3584 19.5977C2.20635 19.5977 2.18945 19.6568 2.18945 20.1045C2.18945 20.5522 2.17256 20.6113 2.02051 20.6113C1.86846 20.6113 1.85156 20.6705 1.85156 21.1182C1.85156 21.5659 1.83467 21.625 1.68262 21.625C1.53057 21.625 1.51367 21.6841 1.51367 22.1318C1.51367 22.5795 1.49678 22.6387 1.34473 22.6387C1.19268 22.6387 1.17578 22.6978 1.17578 23.3145C1.17578 23.9311 1.15889 23.9902 1.00684 23.9902C0.846338 23.9902 0.837891 24.0494 0.837891 24.835C0.837891 25.6206 0.829443 25.6797 0.668945 25.6797C0.5 25.6797 0.5 25.7388 0.5 86.5C0.5 147.261 0.5 147.32 0.668945 147.32C0.829443 147.32 0.837891 147.379 0.837891 148.165C0.837891 148.951 0.846338 149.01 1.00684 149.01C1.15889 149.01 1.17578 149.069 1.17578 149.686C1.17578 150.302 1.19268 150.361 1.34473 150.361C1.49678 150.361 1.51367 150.42 1.51367 150.868C1.51367 151.316 1.53057 151.375 1.68262 151.375C1.83467 151.375 1.85156 151.434 1.85156 151.882C1.85156 152.33 1.86846 152.389 2.02051 152.389C2.17256 152.389 2.18945 152.448 2.18945 152.896C2.18945 153.343 2.20635 153.402 2.3584 153.402C2.502 153.402 2.52734 153.461 2.52734 153.74C2.52734 154.019 2.55269 154.078 2.69629 154.078C2.83989 154.078 2.86523 154.137 2.86523 154.416C2.86523 154.695 2.89058 154.754 3.03418 154.754C3.17778 154.754 3.20312 154.813 3.20312 155.092C3.20312 155.371 3.22847 155.43 3.37207 155.43C3.51567 155.43 3.54102 155.489 3.54102 155.768C3.54102 156.046 3.56636 156.105 3.70996 156.105C3.85356 156.105 3.87891 156.165 3.87891 156.443C3.87891 156.722 3.90425 156.781 4.04785 156.781C4.19145 156.781 4.2168 156.84 4.2168 157.119C4.2168 157.398 4.24214 157.457 4.38574 157.457C4.49556 157.457 4.55469 157.516 4.55469 157.626C4.55469 157.736 4.61382 157.795 4.72363 157.795C4.86724 157.795 4.89258 157.854 4.89258 158.133C4.89258 158.412 4.91792 158.471 5.06152 158.471C5.17134 158.471 5.23047 158.53 5.23047 158.64C5.23047 158.749 5.2896 158.809 5.39941 158.809C5.50923 158.809 5.56836 158.868 5.56836 158.978C5.56836 159.087 5.62749 159.146 5.7373 159.146C5.88091 159.146 5.90625 159.206 5.90625 159.484C5.90625 159.763 5.93159 159.822 6.07519 159.822C6.18501 159.822 6.24414 159.881 6.24414 159.991C6.24414 160.101 6.30327 160.16 6.41309 160.16C6.5229 160.16 6.58203 160.219 6.58203 160.329C6.58203 160.439 6.64116 160.498 6.75098 160.498C6.86079 160.498 6.91992 160.557 6.91992 160.667C6.91992 160.777 6.97905 160.836 7.08887 160.836C7.19868 160.836 7.25781 160.895 7.25781 161.005C7.25781 161.115 7.31694 161.174 7.42676 161.174C7.57036 161.174 7.5957 161.233 7.5957 161.512C7.5957 161.79 7.62104 161.85 7.76465 161.85C7.87446 161.85 7.93359 161.909 7.93359 162.019C7.93359 162.128 7.99272 162.188 8.10254 162.188C8.21235 162.188 8.27148 162.247 8.27148 162.356C8.27148 162.466 8.33062 162.525 8.44043 162.525C8.55024 162.525 8.60938 162.585 8.60938 162.694C8.60938 162.838 8.66851 162.863 8.94727 162.863C9.22602 162.863 9.28516 162.889 9.28516 163.032C9.28516 163.142 9.34429 163.201 9.4541 163.201C9.56392 163.201 9.62305 163.26 9.62305 163.37C9.62305 163.48 9.68218 163.539 9.79199 163.539C9.90181 163.539 9.96094 163.598 9.96094 163.708C9.96094 163.818 10.0201 163.877 10.1299 163.877C10.2397 163.877 10.2988 163.936 10.2988 164.046C10.2988 164.156 10.358 164.215 10.4678 164.215C10.5776 164.215 10.6367 164.274 10.6367 164.384C10.6367 164.527 10.6958 164.553 10.9746 164.553C11.2534 164.553 11.3125 164.578 11.3125 164.722C11.3125 164.831 11.3716 164.891 11.4814 164.891C11.5913 164.891 11.6504 164.95 11.6504 165.06C11.6504 165.169 11.7095 165.229 11.8193 165.229C11.9291 165.229 11.9883 165.288 11.9883 165.397C11.9883 165.541 12.0474 165.566 12.3262 165.566C12.6049 165.566 12.6641 165.592 12.6641 165.735C12.6641 165.845 12.7232 165.904 12.833 165.904C12.9428 165.904 13.002 165.963 13.002 166.073C13.002 166.217 13.0611 166.242 13.3398 166.242C13.6186 166.242 13.6777 166.268 13.6777 166.411C13.6777 166.555 13.7369 166.58 14.0156 166.58C14.2944 166.58 14.3535 166.605 14.3535 166.749C14.3535 166.893 14.4126 166.918 14.6914 166.918C14.9702 166.918 15.0293 166.943 15.0293 167.087C15.0293 167.231 15.0884 167.256 15.3672 167.256C15.6459 167.256 15.7051 167.281 15.7051 167.425C15.7051 167.568 15.7642 167.594 16.043 167.594C16.3217 167.594 16.3809 167.619 16.3809 167.763C16.3809 167.906 16.44 167.932 16.7188 167.932C16.9975 167.932 17.0566 167.957 17.0566 168.101C17.0566 168.253 17.1158 168.27 17.5635 168.27C18.0112 168.27 18.0703 168.286 18.0703 168.438C18.0703 168.582 18.1294 168.607 18.4082 168.607C18.687 168.607 18.7461 168.633 18.7461 168.776C18.7461 168.928 18.8052 168.945 19.4219 168.945C20.0385 168.945 20.0977 168.962 20.0977 169.114C20.0977 169.266 20.1568 169.283 20.7734 169.283C21.3901 169.283 21.4492 169.3 21.4492 169.452C21.4492 169.613 21.5083 169.621 22.2939 169.621C23.0795 169.621 23.1387 169.63 23.1387 169.79C23.1387 169.951 23.1978 169.959 24.9971 169.959C26.7963 169.959 26.8555 169.967 26.8555 170.128C26.8555 170.297 26.9146 170.297 87 170.297C147.085 170.297 147.145 170.297 147.145 170.128C147.145 169.967 147.204 169.959 149.003 169.959C150.802 169.959 150.861 169.951 150.861 169.79C150.861 169.63 150.92 169.621 151.706 169.621C152.492 169.621 152.551 169.613 152.551 169.452C152.551 169.3 152.61 169.283 153.227 169.283C153.843 169.283 153.902 169.266 153.902 169.114C153.902 168.962 153.961 168.945 154.409 168.945C154.857 168.945 154.916 168.928 154.916 168.776C154.916 168.624 154.975 168.607 155.423 168.607C155.871 168.607 155.93 168.591 155.93 168.438C155.93 168.286 155.989 168.27 156.437 168.27C156.884 168.27 156.943 168.253 156.943 168.101C156.943 167.957 157.002 167.932 157.281 167.932C157.56 167.932 157.619 167.906 157.619 167.763C157.619 167.619 157.678 167.594 157.957 167.594C158.236 167.594 158.295 167.568 158.295 167.425C158.295 167.281 158.354 167.256 158.633 167.256C158.912 167.256 158.971 167.231 158.971 167.087C158.971 166.943 159.03 166.918 159.309 166.918C159.587 166.918 159.646 166.893 159.646 166.749C159.646 166.605 159.706 166.58 159.984 166.58C160.263 166.58 160.322 166.555 160.322 166.411C160.322 166.268 160.381 166.242 160.66 166.242C160.939 166.242 160.998 166.217 160.998 166.073C160.998 165.963 161.057 165.904 161.167 165.904C161.277 165.904 161.336 165.845 161.336 165.735C161.336 165.592 161.395 165.566 161.674 165.566C161.953 165.566 162.012 165.541 162.012 165.397C162.012 165.288 162.071 165.229 162.181 165.229C162.29 165.229 162.35 165.169 162.35 165.06C162.35 164.95 162.409 164.891 162.519 164.891C162.628 164.891 162.688 164.831 162.688 164.722C162.688 164.578 162.747 164.553 163.025 164.553C163.304 164.553 163.363 164.527 163.363 164.384C163.363 164.274 163.422 164.215 163.532 164.215C163.642 164.215 163.701 164.156 163.701 164.046C163.701 163.936 163.76 163.877 163.87 163.877C163.98 163.877 164.039 163.818 164.039 163.708C164.039 163.598 164.098 163.539 164.208 163.539C164.318 163.539 164.377 163.48 164.377 163.37C164.377 163.26 164.436 163.201 164.546 163.201C164.656 163.201 164.715 163.142 164.715 163.032C164.715 162.922 164.774 162.863 164.884 162.863C164.994 162.863 165.053 162.804 165.053 162.694C165.053 162.551 165.112 162.525 165.391 162.525C165.669 162.525 165.729 162.5 165.729 162.356C165.729 162.247 165.788 162.188 165.897 162.188C166.041 162.188 166.066 162.128 166.066 161.85C166.066 161.571 166.092 161.512 166.235 161.512C166.345 161.512 166.404 161.453 166.404 161.343C166.404 161.233 166.463 161.174 166.573 161.174C166.683 161.174 166.742 161.115 166.742 161.005C166.742 160.895 166.801 160.836 166.911 160.836C167.021 160.836 167.08 160.777 167.08 160.667C167.08 160.557 167.139 160.498 167.249 160.498C167.359 160.498 167.418 160.439 167.418 160.329C167.418 160.219 167.477 160.16 167.587 160.16C167.697 160.16 167.756 160.101 167.756 159.991C167.756 159.881 167.815 159.822 167.925 159.822C168.068 159.822 168.094 159.763 168.094 159.484C168.094 159.206 168.119 159.146 168.263 159.146C168.372 159.146 168.432 159.087 168.432 158.978C168.432 158.868 168.491 158.809 168.601 158.809C168.71 158.809 168.77 158.749 168.77 158.64C168.77 158.53 168.829 158.471 168.938 158.471C169.082 158.471 169.107 158.412 169.107 158.133C169.107 157.854 169.133 157.795 169.276 157.795C169.386 157.795 169.445 157.736 169.445 157.626C169.445 157.516 169.504 157.457 169.614 157.457C169.758 157.457 169.783 157.398 169.783 157.119C169.783 156.84 169.809 156.781 169.952 156.781C170.096 156.781 170.121 156.722 170.121 156.443C170.121 156.165 170.146 156.105 170.29 156.105C170.434 156.105 170.459 156.046 170.459 155.768C170.459 155.489 170.484 155.43 170.628 155.43C170.772 155.43 170.797 155.371 170.797 155.092C170.797 154.813 170.822 154.754 170.966 154.754C171.109 154.754 171.135 154.695 171.135 154.416C171.135 154.137 171.16 154.078 171.304 154.078C171.447 154.078 171.473 154.019 171.473 153.74C171.473 153.461 171.498 153.402 171.642 153.402C171.794 153.402 171.811 153.343 171.811 152.896C171.811 152.448 171.827 152.389 171.979 152.389C172.132 152.389 172.148 152.33 172.148 151.882C172.148 151.434 172.165 151.375 172.317 151.375C172.469 151.375 172.486 151.316 172.486 150.868C172.486 150.42 172.503 150.361 172.655 150.361C172.807 150.361 172.824 150.302 172.824 149.686C172.824 149.069 172.841 149.01 172.993 149.01C173.154 149.01 173.162 148.951 173.162 148.165C173.162 147.379 173.171 147.32 173.331 147.32C173.5 147.32 173.5 147.261 173.5 144.11C173.5 140.96 173.5 140.9 173.331 140.9C173.179 140.9 173.162 140.841 173.162 140.394C173.162 139.946 173.145 139.887 172.993 139.887C172.85 139.887 172.824 139.828 172.824 139.549C172.824 139.27 172.799 139.211 172.655 139.211C172.545 139.211 172.486 139.152 172.486 139.042C172.486 138.932 172.427 138.873 172.317 138.873C172.208 138.873 172.148 138.814 172.148 138.704C172.148 138.594 172.089 138.535 171.979 138.535C171.87 138.535 171.811 138.476 171.811 138.366C171.811 138.256 171.751 138.197 171.642 138.197C171.532 138.197 171.473 138.138 171.473 138.028C171.473 137.919 171.414 137.859 171.304 137.859C171.194 137.859 171.135 137.8 171.135 137.69C171.135 137.581 171.076 137.521 170.966 137.521C170.856 137.521 170.797 137.462 170.797 137.353C170.797 137.209 170.738 137.184 170.459 137.184C170.18 137.184 170.121 137.158 170.121 137.015C170.121 136.871 170.062 136.846 169.783 136.846C169.504 136.846 169.445 136.82 169.445 136.677C169.445 136.533 169.386 136.508 169.107 136.508C168.829 136.508 168.77 136.482 168.77 136.339C168.77 136.178 168.71 136.17 166.742 136.17C164.774 136.17 164.715 136.178 164.715 136.339C164.715 136.482 164.656 136.508 164.377 136.508C164.098 136.508 164.039 136.533 164.039 136.677C164.039 136.82 163.98 136.846 163.701 136.846C163.422 136.846 163.363 136.871 163.363 137.015C163.363 137.158 163.304 137.184 163.025 137.184C162.747 137.184 162.688 137.209 162.688 137.353C162.688 137.462 162.628 137.521 162.519 137.521C162.409 137.521 162.35 137.581 162.35 137.69C162.35 137.8 162.29 137.859 162.181 137.859C162.071 137.859 162.012 137.919 162.012 138.028C162.012 138.138 161.953 138.197 161.843 138.197C161.733 138.197 161.674 138.256 161.674 138.366C161.674 138.476 161.615 138.535 161.505 138.535C161.395 138.535 161.336 138.594 161.336 138.704C161.336 138.814 161.277 138.873 161.167 138.873C161.057 138.873 160.998 138.932 160.998 139.042C160.998 139.152 160.939 139.211 160.829 139.211C160.685 139.211 160.66 139.27 160.66 139.549C160.66 139.828 160.635 139.887 160.491 139.887C160.339 139.887 160.322 139.946 160.322 140.394C160.322 140.841 160.305 140.9 160.153 140.9C159.993 140.9 159.984 140.96 159.984 141.914C159.984 142.869 159.976 142.928 159.815 142.928C159.655 142.928 159.646 142.987 159.646 144.279C159.646 145.572 159.638 145.631 159.478 145.631C159.325 145.631 159.309 145.69 159.309 146.307C159.309 146.923 159.292 146.982 159.14 146.982C158.988 146.982 158.971 147.042 158.971 147.489C158.971 147.937 158.954 147.996 158.802 147.996C158.658 147.996 158.633 148.055 158.633 148.334C158.633 148.613 158.607 148.672 158.464 148.672C158.32 148.672 158.295 148.731 158.295 149.01C158.295 149.289 158.27 149.348 158.126 149.348C157.982 149.348 157.957 149.407 157.957 149.686C157.957 149.964 157.932 150.023 157.788 150.023C157.678 150.023 157.619 150.083 157.619 150.192C157.619 150.302 157.56 150.361 157.45 150.361C157.307 150.361 157.281 150.42 157.281 150.699C157.281 150.978 157.256 151.037 157.112 151.037C157.002 151.037 156.943 151.096 156.943 151.206C156.943 151.316 156.884 151.375 156.774 151.375C156.665 151.375 156.605 151.434 156.605 151.544C156.605 151.654 156.546 151.713 156.437 151.713C156.327 151.713 156.268 151.772 156.268 151.882C156.268 151.992 156.208 152.051 156.099 152.051C155.989 152.051 155.93 152.11 155.93 152.22C155.93 152.33 155.871 152.389 155.761 152.389C155.651 152.389 155.592 152.448 155.592 152.558C155.592 152.667 155.533 152.727 155.423 152.727C155.313 152.727 155.254 152.786 155.254 152.896C155.254 153.005 155.195 153.064 155.085 153.064C154.975 153.064 154.916 153.124 154.916 153.233C154.916 153.343 154.857 153.402 154.747 153.402C154.637 153.402 154.578 153.461 154.578 153.571C154.578 153.715 154.519 153.74 154.24 153.74C153.961 153.74 153.902 153.766 153.902 153.909C153.902 154.019 153.843 154.078 153.733 154.078C153.624 154.078 153.564 154.137 153.564 154.247C153.564 154.391 153.505 154.416 153.227 154.416C152.948 154.416 152.889 154.441 152.889 154.585C152.889 154.729 152.83 154.754 152.551 154.754C152.272 154.754 152.213 154.779 152.213 154.923C152.213 155.066 152.154 155.092 151.875 155.092C151.596 155.092 151.537 155.117 151.537 155.261C151.537 155.413 151.478 155.43 151.03 155.43C150.583 155.43 150.523 155.447 150.523 155.599C150.523 155.751 150.464 155.768 150.017 155.768C149.569 155.768 149.51 155.784 149.51 155.937C149.51 156.097 149.451 156.105 148.327 156.105C147.204 156.105 147.145 156.114 147.145 156.274C147.145 156.443 147.085 156.443 87 156.443C26.9146 156.443 26.8555 156.443 26.8555 156.274C26.8555 156.114 26.7963 156.105 25.6728 156.105C24.5494 156.105 24.4902 156.097 24.4902 155.937C24.4902 155.784 24.4311 155.768 23.9834 155.768C23.5357 155.768 23.4766 155.751 23.4766 155.599C23.4766 155.447 23.4174 155.43 22.9697 155.43C22.522 155.43 22.4629 155.413 22.4629 155.261C22.4629 155.117 22.4038 155.092 22.125 155.092C21.8462 155.092 21.7871 155.066 21.7871 154.923C21.7871 154.779 21.728 154.754 21.4492 154.754C21.1705 154.754 21.1113 154.729 21.1113 154.585C21.1113 154.441 21.0522 154.416 20.7734 154.416C20.4947 154.416 20.4355 154.391 20.4355 154.247C20.4355 154.137 20.3764 154.078 20.2666 154.078C20.1568 154.078 20.0977 154.019 20.0977 153.909C20.0977 153.766 20.0385 153.74 19.7598 153.74C19.481 153.74 19.4219 153.715 19.4219 153.571C19.4219 153.461 19.3627 153.402 19.2529 153.402C19.1431 153.402 19.084 153.343 19.084 153.233C19.084 153.124 19.0249 153.064 18.915 153.064C18.8052 153.064 18.7461 153.005 18.7461 152.896C18.7461 152.786 18.687 152.727 18.5771 152.727C18.4673 152.727 18.4082 152.667 18.4082 152.558C18.4082 152.448 18.3491 152.389 18.2393 152.389C18.1294 152.389 18.0703 152.33 18.0703 152.22C18.0703 152.11 18.0112 152.051 17.9014 152.051C17.7916 152.051 17.7324 151.992 17.7324 151.882C17.7324 151.772 17.6733 151.713 17.5635 151.713C17.4537 151.713 17.3945 151.654 17.3945 151.544C17.3945 151.434 17.3354 151.375 17.2256 151.375C17.1158 151.375 17.0566 151.316 17.0566 151.206C17.0566 151.096 16.9975 151.037 16.8877 151.037C16.7441 151.037 16.7188 150.978 16.7188 150.699C16.7188 150.42 16.6934 150.361 16.5498 150.361C16.44 150.361 16.3809 150.302 16.3809 150.192C16.3809 150.083 16.3217 150.023 16.2119 150.023C16.0683 150.023 16.043 149.964 16.043 149.686C16.043 149.407 16.0176 149.348 15.874 149.348C15.7304 149.348 15.7051 149.289 15.7051 149.01C15.7051 148.731 15.6797 148.672 15.5361 148.672C15.3925 148.672 15.3672 148.613 15.3672 148.334C15.3672 148.055 15.3418 147.996 15.1982 147.996C15.0462 147.996 15.0293 147.937 15.0293 147.489C15.0293 147.042 15.0124 146.982 14.8604 146.982C14.7083 146.982 14.6914 146.923 14.6914 146.307C14.6914 145.69 14.6745 145.631 14.5225 145.631C14.362 145.631 14.3535 145.572 14.3535 144.279C14.3535 142.987 14.3451 142.928 14.1846 142.928C14.0156 142.928 14.0156 142.869 14.0156 106.773V70.6191H87H159.984V91.0615C159.984 111.445 159.984 111.504 160.153 111.504C160.297 111.504 160.322 111.563 160.322 111.842C160.322 112.121 160.348 112.18 160.491 112.18C160.635 112.18 160.66 112.239 160.66 112.518C160.66 112.796 160.685 112.855 160.829 112.855C160.973 112.855 160.998 112.915 160.998 113.193C160.998 113.472 161.023 113.531 161.167 113.531C161.277 113.531 161.336 113.59 161.336 113.7C161.336 113.81 161.395 113.869 161.505 113.869C161.615 113.869 161.674 113.928 161.674 114.038C161.674 114.148 161.733 114.207 161.843 114.207C161.953 114.207 162.012 114.266 162.012 114.376C162.012 114.486 162.071 114.545 162.181 114.545C162.29 114.545 162.35 114.604 162.35 114.714C162.35 114.857 162.409 114.883 162.688 114.883C162.966 114.883 163.025 114.908 163.025 115.052C163.025 115.162 163.085 115.221 163.194 115.221C163.304 115.221 163.363 115.28 163.363 115.39C163.363 115.542 163.422 115.559 163.87 115.559C164.318 115.559 164.377 115.575 164.377 115.728C164.377 115.88 164.436 115.896 164.884 115.896C165.331 115.896 165.391 115.913 165.391 116.065C165.391 116.226 165.45 116.234 166.742 116.234C168.035 116.234 168.094 116.226 168.094 116.065C168.094 115.913 168.153 115.896 168.601 115.896C169.048 115.896 169.107 115.88 169.107 115.728C169.107 115.575 169.167 115.559 169.614 115.559C170.062 115.559 170.121 115.542 170.121 115.39C170.121 115.28 170.18 115.221 170.29 115.221C170.4 115.221 170.459 115.162 170.459 115.052C170.459 114.908 170.518 114.883 170.797 114.883C171.076 114.883 171.135 114.857 171.135 114.714C171.135 114.604 171.194 114.545 171.304 114.545C171.414 114.545 171.473 114.486 171.473 114.376C171.473 114.266 171.532 114.207 171.642 114.207C171.751 114.207 171.811 114.148 171.811 114.038C171.811 113.928 171.87 113.869 171.979 113.869C172.089 113.869 172.148 113.81 172.148 113.7C172.148 113.59 172.208 113.531 172.317 113.531C172.461 113.531 172.486 113.472 172.486 113.193C172.486 112.915 172.512 112.855 172.655 112.855C172.799 112.855 172.824 112.796 172.824 112.518C172.824 112.239 172.85 112.18 172.993 112.18C173.137 112.18 173.162 112.121 173.162 111.842C173.162 111.563 173.187 111.504 173.331 111.504C173.5 111.504 173.5 111.445 173.5 68.5918C173.5 25.7388 173.5 25.6797 173.331 25.6797C173.171 25.6797 173.162 25.6206 173.162 24.835C173.162 24.0494 173.154 23.9902 172.993 23.9902C172.841 23.9902 172.824 23.9311 172.824 23.3145C172.824 22.6978 172.807 22.6387 172.655 22.6387C172.503 22.6387 172.486 22.5795 172.486 22.1318C172.486 21.6841 172.469 21.625 172.317 21.625C172.165 21.625 172.148 21.5659 172.148 21.1182C172.148 20.6705 172.132 20.6113 171.979 20.6113C171.827 20.6113 171.811 20.5522 171.811 20.1045C171.811 19.6568 171.794 19.5977 171.642 19.5977C171.498 19.5977 171.473 19.5385 171.473 19.2598C171.473 18.981 171.447 18.9219 171.304 18.9219C171.16 18.9219 171.135 18.8627 171.135 18.584C171.135 18.3052 171.109 18.2461 170.966 18.2461C170.822 18.2461 170.797 18.187 170.797 17.9082C170.797 17.6295 170.772 17.5703 170.628 17.5703C170.484 17.5703 170.459 17.5112 170.459 17.2324C170.459 16.9537 170.434 16.8945 170.29 16.8945C170.146 16.8945 170.121 16.8354 170.121 16.5566C170.121 16.2779 170.096 16.2188 169.952 16.2188C169.809 16.2188 169.783 16.1596 169.783 15.8809C169.783 15.6021 169.758 15.543 169.614 15.543C169.504 15.543 169.445 15.4838 169.445 15.374C169.445 15.2642 169.386 15.2051 169.276 15.2051C169.133 15.2051 169.107 15.146 169.107 14.8672C169.107 14.5884 169.082 14.5293 168.938 14.5293C168.829 14.5293 168.77 14.4702 168.77 14.3604C168.77 14.2505 168.71 14.1914 168.601 14.1914C168.491 14.1914 168.432 14.1323 168.432 14.0225C168.432 13.9127 168.372 13.8535 168.263 13.8535C168.119 13.8535 168.094 13.7944 168.094 13.5156C168.094 13.2369 168.068 13.1777 167.925 13.1777C167.815 13.1777 167.756 13.1186 167.756 13.0088C167.756 12.899 167.697 12.8398 167.587 12.8398C167.477 12.8398 167.418 12.7807 167.418 12.6709C167.418 12.5611 167.359 12.502 167.249 12.502C167.139 12.502 167.08 12.4428 167.08 12.333C167.08 12.2232 167.021 12.1641 166.911 12.1641C166.801 12.1641 166.742 12.1049 166.742 11.9951C166.742 11.8853 166.683 11.8262 166.573 11.8262C166.43 11.8262 166.404 11.767 166.404 11.4883C166.404 11.2095 166.379 11.1504 166.235 11.1504C166.126 11.1504 166.066 11.0913 166.066 10.9814C166.066 10.8716 166.007 10.8125 165.897 10.8125C165.788 10.8125 165.729 10.7534 165.729 10.6436C165.729 10.5338 165.669 10.4746 165.56 10.4746C165.45 10.4746 165.391 10.4155 165.391 10.3057C165.391 10.1621 165.331 10.1367 165.053 10.1367C164.774 10.1367 164.715 10.1114 164.715 9.96777C164.715 9.85797 164.656 9.79883 164.546 9.79883C164.436 9.79883 164.377 9.7397 164.377 9.62988C164.377 9.52008 164.318 9.46094 164.208 9.46094C164.098 9.46094 164.039 9.40181 164.039 9.29199C164.039 9.18219 163.98 9.12305 163.87 9.12305C163.76 9.12305 163.701 9.06392 163.701 8.9541C163.701 8.8443 163.642 8.78516 163.532 8.78516C163.422 8.78516 163.363 8.72603 163.363 8.61621C163.363 8.47261 163.304 8.44727 163.025 8.44727C162.747 8.44727 162.688 8.42194 162.688 8.27832C162.688 8.16852 162.628 8.10938 162.519 8.10938C162.409 8.10938 162.35 8.05025 162.35 7.94043C162.35 7.83063 162.29 7.77148 162.181 7.77148C162.071 7.77148 162.012 7.71236 162.012 7.60254C162.012 7.45894 161.953 7.43359 161.674 7.43359C161.395 7.43359 161.336 7.40826 161.336 7.26465C161.336 7.15485 161.277 7.0957 161.167 7.0957C161.057 7.0957 160.998 7.03658 160.998 6.92676C160.998 6.78316 160.939 6.75781 160.66 6.75781C160.381 6.75781 160.322 6.73248 160.322 6.58887C160.322 6.44527 160.263 6.41992 159.984 6.41992C159.706 6.41992 159.646 6.39459 159.646 6.25098C159.646 6.10738 159.587 6.08203 159.309 6.08203C159.03 6.08203 158.971 6.0567 158.971 5.91309C158.971 5.76949 158.912 5.74414 158.633 5.74414C158.354 5.74414 158.295 5.71881 158.295 5.5752C158.295 5.43159 158.236 5.40625 157.957 5.40625C157.678 5.40625 157.619 5.38092 157.619 5.2373C157.619 5.0937 157.56 5.06836 157.281 5.06836C157.002 5.06836 156.943 5.04303 156.943 4.89941C156.943 4.74738 156.884 4.73047 156.437 4.73047C155.989 4.73047 155.93 4.71358 155.93 4.56152C155.93 4.41792 155.871 4.39258 155.592 4.39258C155.313 4.39258 155.254 4.36725 155.254 4.22363C155.254 4.07159 155.195 4.05469 154.578 4.05469C153.961 4.05469 153.902 4.0378 153.902 3.88574C153.902 3.7337 153.843 3.7168 153.227 3.7168C152.61 3.7168 152.551 3.69991 152.551 3.54785C152.551 3.38736 152.492 3.37891 151.706 3.37891C150.92 3.37891 150.861 3.37047 150.861 3.20996C150.861 3.04947 150.802 3.04102 149.172 3.04102C147.542 3.04102 147.482 3.03258 147.482 2.87207C147.482 2.70312 147.423 2.70312 87 2.70312C26.5767 2.70312 26.5176 2.70312 26.5176 2.87207ZM147.145 16.7256C147.145 16.8861 147.204 16.8945 148.327 16.8945C149.451 16.8945 149.51 16.903 149.51 17.0635C149.51 17.2155 149.569 17.2324 150.017 17.2324C150.464 17.2324 150.523 17.2493 150.523 17.4014C150.523 17.5534 150.583 17.5703 151.03 17.5703C151.478 17.5703 151.537 17.5872 151.537 17.7393C151.537 17.8829 151.596 17.9082 151.875 17.9082C152.154 17.9082 152.213 17.9335 152.213 18.0771C152.213 18.2208 152.272 18.2461 152.551 18.2461C152.83 18.2461 152.889 18.2714 152.889 18.415C152.889 18.5587 152.948 18.584 153.227 18.584C153.505 18.584 153.564 18.6093 153.564 18.7529C153.564 18.8627 153.624 18.9219 153.733 18.9219C153.843 18.9219 153.902 18.981 153.902 19.0908C153.902 19.2344 153.961 19.2598 154.24 19.2598C154.519 19.2598 154.578 19.2851 154.578 19.4287C154.578 19.5385 154.637 19.5977 154.747 19.5977C154.857 19.5977 154.916 19.6568 154.916 19.7666C154.916 19.8764 154.975 19.9355 155.085 19.9355C155.195 19.9355 155.254 19.9947 155.254 20.1045C155.254 20.2143 155.313 20.2734 155.423 20.2734C155.533 20.2734 155.592 20.3326 155.592 20.4424C155.592 20.5522 155.651 20.6113 155.761 20.6113C155.871 20.6113 155.93 20.6705 155.93 20.7803C155.93 20.8901 155.989 20.9492 156.099 20.9492C156.208 20.9492 156.268 21.0084 156.268 21.1182C156.268 21.228 156.327 21.2871 156.437 21.2871C156.546 21.2871 156.605 21.3463 156.605 21.4561C156.605 21.5659 156.665 21.625 156.774 21.625C156.884 21.625 156.943 21.6841 156.943 21.7939C156.943 21.9038 157.002 21.9629 157.112 21.9629C157.256 21.9629 157.281 22.022 157.281 22.3008C157.281 22.5795 157.307 22.6387 157.45 22.6387C157.56 22.6387 157.619 22.6978 157.619 22.8076C157.619 22.9174 157.678 22.9766 157.788 22.9766C157.932 22.9766 157.957 23.0357 157.957 23.3145C157.957 23.5932 157.982 23.6523 158.126 23.6523C158.27 23.6523 158.295 23.7115 158.295 23.9902C158.295 24.269 158.32 24.3281 158.464 24.3281C158.607 24.3281 158.633 24.3873 158.633 24.666C158.633 24.9448 158.658 25.0039 158.802 25.0039C158.954 25.0039 158.971 25.063 158.971 25.5107C158.971 25.9585 158.988 26.0176 159.14 26.0176C159.292 26.0176 159.309 26.0767 159.309 26.6934C159.309 27.31 159.325 27.3691 159.478 27.3691C159.638 27.3691 159.646 27.4283 159.646 28.7207C159.646 30.0131 159.655 30.0723 159.815 30.0723C159.984 30.0723 159.984 30.1314 159.984 43.419V56.7656H87H14.0156V43.419C14.0156 30.1314 14.0156 30.0723 14.1846 30.0723C14.3451 30.0723 14.3535 30.0131 14.3535 28.5518C14.3535 27.0904 14.362 27.0312 14.5225 27.0312C14.6745 27.0312 14.6914 26.9721 14.6914 26.5244C14.6914 26.0767 14.7083 26.0176 14.8604 26.0176C15.0124 26.0176 15.0293 25.9585 15.0293 25.5107C15.0293 25.063 15.0462 25.0039 15.1982 25.0039C15.3418 25.0039 15.3672 24.9448 15.3672 24.666C15.3672 24.3873 15.3925 24.3281 15.5361 24.3281C15.6797 24.3281 15.7051 24.269 15.7051 23.9902C15.7051 23.7115 15.7304 23.6523 15.874 23.6523C16.0176 23.6523 16.043 23.5932 16.043 23.3145C16.043 23.0357 16.0683 22.9766 16.2119 22.9766C16.3217 22.9766 16.3809 22.9174 16.3809 22.8076C16.3809 22.6978 16.44 22.6387 16.5498 22.6387C16.6934 22.6387 16.7188 22.5795 16.7188 22.3008C16.7188 22.022 16.7441 21.9629 16.8877 21.9629C16.9975 21.9629 17.0566 21.9038 17.0566 21.7939C17.0566 21.6841 17.1158 21.625 17.2256 21.625C17.3354 21.625 17.3945 21.5659 17.3945 21.4561C17.3945 21.3463 17.4537 21.2871 17.5635 21.2871C17.6733 21.2871 17.7324 21.228 17.7324 21.1182C17.7324 21.0084 17.7916 20.9492 17.9014 20.9492C18.0112 20.9492 18.0703 20.8901 18.0703 20.7803C18.0703 20.6705 18.1294 20.6113 18.2393 20.6113C18.3491 20.6113 18.4082 20.5522 18.4082 20.4424C18.4082 20.3326 18.4673 20.2734 18.5771 20.2734C18.687 20.2734 18.7461 20.2143 18.7461 20.1045C18.7461 19.9947 18.8052 19.9355 18.915 19.9355C19.0249 19.9355 19.084 19.8764 19.084 19.7666C19.084 19.6568 19.1431 19.5977 19.2529 19.5977C19.3627 19.5977 19.4219 19.5385 19.4219 19.4287C19.4219 19.2851 19.481 19.2598 19.7598 19.2598C20.0385 19.2598 20.0977 19.2344 20.0977 19.0908C20.0977 18.981 20.1568 18.9219 20.2666 18.9219C20.3764 18.9219 20.4355 18.8627 20.4355 18.7529C20.4355 18.6093 20.4947 18.584 20.7734 18.584C21.0522 18.584 21.1113 18.5587 21.1113 18.415C21.1113 18.2714 21.1705 18.2461 21.4492 18.2461C21.728 18.2461 21.7871 18.2208 21.7871 18.0771C21.7871 17.9335 21.8462 17.9082 22.125 17.9082C22.4038 17.9082 22.4629 17.8829 22.4629 17.7393C22.4629 17.5872 22.522 17.5703 22.9697 17.5703C23.4174 17.5703 23.4766 17.5534 23.4766 17.4014C23.4766 17.2493 23.5357 17.2324 23.9834 17.2324C24.4311 17.2324 24.4902 17.2155 24.4902 17.0635C24.4902 16.903 24.5494 16.8945 25.6728 16.8945C26.7963 16.8945 26.8555 16.8861 26.8555 16.7256C26.8555 16.5566 26.9146 16.5566 87 16.5566C147.085 16.5566 147.145 16.5566 147.145 16.7256Z"
      fill="currentColor"
    />
<path
      d="M31.9238 29.9033C31.9238 30.0554 31.8647 30.0723 31.417 30.0723C30.9693 30.0723 30.9102 30.0892 30.9102 30.2412C30.9102 30.3848 30.851 30.4102 30.5723 30.4102C30.2935 30.4102 30.2344 30.4355 30.2344 30.5791C30.2344 30.7227 30.1752 30.748 29.8965 30.748C29.6177 30.748 29.5586 30.7734 29.5586 30.917C29.5586 31.0268 29.4995 31.0859 29.3896 31.0859C29.2798 31.0859 29.2207 31.1451 29.2207 31.2549C29.2207 31.3647 29.1616 31.4238 29.0518 31.4238C28.9419 31.4238 28.8828 31.483 28.8828 31.5928C28.8828 31.7026 28.8237 31.7617 28.7139 31.7617C28.6041 31.7617 28.5449 31.8209 28.5449 31.9307C28.5449 32.0405 28.4858 32.0996 28.376 32.0996C28.2662 32.0996 28.207 32.1587 28.207 32.2686C28.207 32.3784 28.1479 32.4375 28.0381 32.4375C27.8945 32.4375 27.8691 32.4966 27.8691 32.7754C27.8691 33.0542 27.8438 33.1133 27.7002 33.1133C27.5904 33.1133 27.5312 33.1724 27.5312 33.2822C27.5312 33.392 27.4721 33.4512 27.3623 33.4512C27.2103 33.4512 27.1934 33.5103 27.1934 33.958C27.1934 34.4057 27.1765 34.4648 27.0244 34.4648C26.8639 34.4648 26.8555 34.524 26.8555 35.3096C26.8555 36.0952 26.847 36.1543 26.6865 36.1543C26.5345 36.1543 26.5176 36.2134 26.5176 36.6611C26.5176 37.1088 26.5345 37.168 26.6865 37.168C26.847 37.168 26.8555 37.2271 26.8555 38.0127C26.8555 38.7983 26.8639 38.8574 27.0244 38.8574C27.1765 38.8574 27.1934 38.9166 27.1934 39.3643C27.1934 39.812 27.2103 39.8711 27.3623 39.8711C27.5059 39.8711 27.5312 39.9302 27.5312 40.209C27.5312 40.4877 27.5566 40.5469 27.7002 40.5469C27.81 40.5469 27.8691 40.606 27.8691 40.7158C27.8691 40.8256 27.9283 40.8848 28.0381 40.8848C28.1479 40.8848 28.207 40.9439 28.207 41.0537C28.207 41.1635 28.2662 41.2227 28.376 41.2227C28.4858 41.2227 28.5449 41.2818 28.5449 41.3916C28.5449 41.5014 28.6041 41.5605 28.7139 41.5605C28.8237 41.5605 28.8828 41.6197 28.8828 41.7295C28.8828 41.8393 28.9419 41.8984 29.0518 41.8984C29.1616 41.8984 29.2207 41.9576 29.2207 42.0674C29.2207 42.1772 29.2798 42.2363 29.3896 42.2363C29.4995 42.2363 29.5586 42.2955 29.5586 42.4053C29.5586 42.5489 29.6177 42.5742 29.8965 42.5742C30.1752 42.5742 30.2344 42.5996 30.2344 42.7432C30.2344 42.8868 30.2935 42.9121 30.5723 42.9121C30.851 42.9121 30.9102 42.9375 30.9102 43.0811C30.9102 43.2331 30.9693 43.25 31.417 43.25C31.8647 43.25 31.9238 43.2669 31.9238 43.4189C31.9238 43.5879 31.983 43.5879 35.3027 43.5879C38.6225 43.5879 38.6816 43.5879 38.6816 43.4189C38.6816 43.2669 38.7408 43.25 39.1885 43.25C39.6362 43.25 39.6953 43.2331 39.6953 43.0811C39.6953 42.9375 39.7544 42.9121 40.0332 42.9121C40.312 42.9121 40.3711 42.8868 40.3711 42.7432C40.3711 42.5996 40.4302 42.5742 40.709 42.5742C40.9877 42.5742 41.0469 42.5489 41.0469 42.4053C41.0469 42.2955 41.106 42.2363 41.2158 42.2363C41.3256 42.2363 41.3848 42.1772 41.3848 42.0674C41.3848 41.9238 41.4439 41.8984 41.7227 41.8984C42.0014 41.8984 42.0605 41.8731 42.0605 41.7295C42.0605 41.6197 42.1197 41.5605 42.2295 41.5605C42.3731 41.5605 42.3984 41.5014 42.3984 41.2227C42.3984 40.9439 42.4238 40.8848 42.5674 40.8848C42.6772 40.8848 42.7363 40.8256 42.7363 40.7158C42.7363 40.606 42.7955 40.5469 42.9053 40.5469C43.0489 40.5469 43.0742 40.4877 43.0742 40.209C43.0742 39.9302 43.0996 39.8711 43.2432 39.8711C43.3868 39.8711 43.4121 39.812 43.4121 39.5332C43.4121 39.2544 43.4375 39.1953 43.5811 39.1953C43.7331 39.1953 43.75 39.1362 43.75 38.5195C43.75 37.9029 43.7669 37.8438 43.9189 37.8438C44.0794 37.8438 44.0879 37.7846 44.0879 36.6611C44.0879 35.5376 44.0794 35.4785 43.9189 35.4785C43.7669 35.4785 43.75 35.4194 43.75 34.8027C43.75 34.1861 43.7331 34.127 43.5811 34.127C43.4375 34.127 43.4121 34.0678 43.4121 33.7891C43.4121 33.5103 43.3868 33.4512 43.2432 33.4512C43.0996 33.4512 43.0742 33.392 43.0742 33.1133C43.0742 32.8345 43.0489 32.7754 42.9053 32.7754C42.7955 32.7754 42.7363 32.7163 42.7363 32.6064C42.7363 32.4966 42.6772 32.4375 42.5674 32.4375C42.4576 32.4375 42.3984 32.3784 42.3984 32.2686C42.3984 32.1587 42.3393 32.0996 42.2295 32.0996C42.1197 32.0996 42.0605 32.0405 42.0605 31.9307C42.0605 31.8209 42.0014 31.7617 41.8916 31.7617C41.7818 31.7617 41.7227 31.7026 41.7227 31.5928C41.7227 31.483 41.6635 31.4238 41.5537 31.4238C41.4439 31.4238 41.3848 31.3647 41.3848 31.2549C41.3848 31.1451 41.3256 31.0859 41.2158 31.0859C41.106 31.0859 41.0469 31.0268 41.0469 30.917C41.0469 30.7734 40.9877 30.748 40.709 30.748C40.4302 30.748 40.3711 30.7227 40.3711 30.5791C40.3711 30.4355 40.312 30.4102 40.0332 30.4102C39.7544 30.4102 39.6953 30.3848 39.6953 30.2412C39.6953 30.0892 39.6362 30.0723 39.1885 30.0723C38.7408 30.0723 38.6816 30.0554 38.6816 29.9033C38.6816 29.7344 38.6225 29.7344 35.3027 29.7344C31.983 29.7344 31.9238 29.7344 31.9238 29.9033Z"
      fill="currentColor"
    />
<path
      d="M59.6309 29.9033C59.6309 30.0554 59.5717 30.0723 59.124 30.0723C58.6763 30.0723 58.6172 30.0892 58.6172 30.2412C58.6172 30.3848 58.5581 30.4102 58.2793 30.4102C58.0005 30.4102 57.9414 30.4355 57.9414 30.5791C57.9414 30.7227 57.8823 30.748 57.6035 30.748C57.3248 30.748 57.2656 30.7734 57.2656 30.917C57.2656 31.0268 57.2065 31.0859 57.0967 31.0859C56.9869 31.0859 56.9277 31.1451 56.9277 31.2549C56.9277 31.3647 56.8686 31.4238 56.7588 31.4238C56.649 31.4238 56.5898 31.483 56.5898 31.5928C56.5898 31.7026 56.5307 31.7617 56.4209 31.7617C56.3111 31.7617 56.252 31.8209 56.252 31.9307C56.252 32.0405 56.1928 32.0996 56.083 32.0996C55.9732 32.0996 55.9141 32.1587 55.9141 32.2686C55.9141 32.3784 55.8549 32.4375 55.7451 32.4375C55.6015 32.4375 55.5762 32.4966 55.5762 32.7754C55.5762 33.0542 55.5508 33.1133 55.4072 33.1133C55.2974 33.1133 55.2383 33.1724 55.2383 33.2822C55.2383 33.392 55.1792 33.4512 55.0693 33.4512C54.9173 33.4512 54.9004 33.5103 54.9004 33.958C54.9004 34.4057 54.8835 34.4648 54.7314 34.4648C54.5709 34.4648 54.5625 34.524 54.5625 36.6611C54.5625 38.7983 54.5709 38.8574 54.7314 38.8574C54.8835 38.8574 54.9004 38.9166 54.9004 39.3643C54.9004 39.812 54.9173 39.8711 55.0693 39.8711C55.1792 39.8711 55.2383 39.9302 55.2383 40.04C55.2383 40.1499 55.2974 40.209 55.4072 40.209C55.5508 40.209 55.5762 40.2681 55.5762 40.5469C55.5762 40.8256 55.6015 40.8848 55.7451 40.8848C55.8549 40.8848 55.9141 40.9439 55.9141 41.0537C55.9141 41.1635 55.9732 41.2227 56.083 41.2227C56.1928 41.2227 56.252 41.2818 56.252 41.3916C56.252 41.5014 56.3111 41.5605 56.4209 41.5605C56.5307 41.5605 56.5898 41.6197 56.5898 41.7295C56.5898 41.8393 56.649 41.8984 56.7588 41.8984C56.8686 41.8984 56.9277 41.9576 56.9277 42.0674C56.9277 42.1772 56.9869 42.2363 57.0967 42.2363C57.2065 42.2363 57.2656 42.2955 57.2656 42.4053C57.2656 42.5489 57.3248 42.5742 57.6035 42.5742C57.8823 42.5742 57.9414 42.5996 57.9414 42.7432C57.9414 42.8868 58.0005 42.9121 58.2793 42.9121C58.5581 42.9121 58.6172 42.9375 58.6172 43.0811C58.6172 43.2331 58.6763 43.25 59.124 43.25C59.5717 43.25 59.6309 43.2669 59.6309 43.4189C59.6309 43.5879 59.69 43.5879 63.0098 43.5879C66.3295 43.5879 66.3887 43.5879 66.3887 43.4189C66.3887 43.2669 66.4478 43.25 66.8955 43.25C67.3432 43.25 67.4023 43.2331 67.4023 43.0811C67.4023 42.929 67.4615 42.9121 67.9092 42.9121C68.3569 42.9121 68.416 42.8952 68.416 42.7432C68.416 42.6333 68.4751 42.5742 68.585 42.5742C68.6948 42.5742 68.7539 42.5151 68.7539 42.4053C68.7539 42.2617 68.813 42.2363 69.0918 42.2363C69.3706 42.2363 69.4297 42.211 69.4297 42.0674C69.4297 41.9576 69.4888 41.8984 69.5986 41.8984C69.7084 41.8984 69.7676 41.8393 69.7676 41.7295C69.7676 41.6197 69.8267 41.5605 69.9365 41.5605C70.0801 41.5605 70.1055 41.5014 70.1055 41.2227C70.1055 40.9439 70.1308 40.8848 70.2744 40.8848C70.3842 40.8848 70.4434 40.8256 70.4434 40.7158C70.4434 40.606 70.5025 40.5469 70.6123 40.5469C70.7559 40.5469 70.7812 40.4877 70.7812 40.209C70.7812 39.9302 70.8066 39.8711 70.9502 39.8711C71.0938 39.8711 71.1191 39.812 71.1191 39.5332C71.1191 39.2544 71.1445 39.1953 71.2881 39.1953C71.4401 39.1953 71.457 39.1362 71.457 38.6885C71.457 38.2408 71.4739 38.1816 71.626 38.1816C71.7865 38.1816 71.7949 38.1225 71.7949 36.6611C71.7949 35.1998 71.7865 35.1406 71.626 35.1406C71.4739 35.1406 71.457 35.0815 71.457 34.6338C71.457 34.1861 71.4401 34.127 71.2881 34.127C71.1445 34.127 71.1191 34.0678 71.1191 33.7891C71.1191 33.5103 71.0938 33.4512 70.9502 33.4512C70.8066 33.4512 70.7812 33.392 70.7812 33.1133C70.7812 32.8345 70.7559 32.7754 70.6123 32.7754C70.5025 32.7754 70.4434 32.7163 70.4434 32.6064C70.4434 32.4966 70.3842 32.4375 70.2744 32.4375C70.1646 32.4375 70.1055 32.3784 70.1055 32.2686C70.1055 32.1587 70.0463 32.0996 69.9365 32.0996C69.7929 32.0996 69.7676 32.0405 69.7676 31.7617V31.4238H69.4297C69.1509 31.4238 69.0918 31.3985 69.0918 31.2549C69.0918 31.1451 69.0327 31.0859 68.9229 31.0859C68.813 31.0859 68.7539 31.0268 68.7539 30.917C68.7539 30.7734 68.6948 30.748 68.416 30.748C68.1373 30.748 68.0781 30.7227 68.0781 30.5791C68.0781 30.4355 68.019 30.4102 67.7402 30.4102C67.4615 30.4102 67.4023 30.3848 67.4023 30.2412C67.4023 30.0892 67.3432 30.0723 66.8955 30.0723C66.4478 30.0723 66.3887 30.0554 66.3887 29.9033C66.3887 29.7344 66.3295 29.7344 63.0098 29.7344C59.69 29.7344 59.6309 29.7344 59.6309 29.9033Z"
      fill="currentColor"
    />
<path
      d="M87.6758 29.9033C87.6758 30.0554 87.6167 30.0723 87 30.0723C86.3833 30.0723 86.3242 30.0892 86.3242 30.2412C86.3242 30.3848 86.2651 30.4102 85.9863 30.4102C85.7076 30.4102 85.6484 30.4355 85.6484 30.5791C85.6484 30.7227 85.5893 30.748 85.3105 30.748C85.0318 30.748 84.9727 30.7734 84.9727 30.917C84.9727 31.0268 84.9135 31.0859 84.8037 31.0859C84.6939 31.0859 84.6348 31.1451 84.6348 31.2549C84.6348 31.3647 84.5756 31.4238 84.4658 31.4238C84.356 31.4238 84.2969 31.483 84.2969 31.5928C84.2969 31.7026 84.2377 31.7617 84.1279 31.7617C84.0181 31.7617 83.959 31.8209 83.959 31.9307C83.959 32.0405 83.8999 32.0996 83.79 32.0996C83.6802 32.0996 83.6211 32.1587 83.6211 32.2686C83.6211 32.3784 83.562 32.4375 83.4521 32.4375C83.3085 32.4375 83.2832 32.4966 83.2832 32.7754C83.2832 33.0542 83.2579 33.1133 83.1143 33.1133C82.9707 33.1133 82.9453 33.1724 82.9453 33.4512C82.9453 33.7299 82.92 33.7891 82.7764 33.7891C82.6328 33.7891 82.6074 33.8482 82.6074 34.127C82.6074 34.4057 82.5821 34.4648 82.4385 34.4648C82.278 34.4648 82.2695 34.524 82.2695 36.6611C82.2695 38.7983 82.278 38.8574 82.4385 38.8574C82.5821 38.8574 82.6074 38.9166 82.6074 39.1953C82.6074 39.4741 82.6328 39.5332 82.7764 39.5332C82.92 39.5332 82.9453 39.5923 82.9453 39.8711C82.9453 40.1499 82.9707 40.209 83.1143 40.209C83.2579 40.209 83.2832 40.2681 83.2832 40.5469C83.2832 40.8256 83.3085 40.8848 83.4521 40.8848C83.562 40.8848 83.6211 40.9439 83.6211 41.0537C83.6211 41.1635 83.6802 41.2227 83.79 41.2227C83.8999 41.2227 83.959 41.2818 83.959 41.3916C83.959 41.5014 84.0181 41.5605 84.1279 41.5605C84.2377 41.5605 84.2969 41.6197 84.2969 41.7295C84.2969 41.8393 84.356 41.8984 84.4658 41.8984C84.5756 41.8984 84.6348 41.9576 84.6348 42.0674C84.6348 42.1772 84.6939 42.2363 84.8037 42.2363C84.9135 42.2363 84.9727 42.2955 84.9727 42.4053C84.9727 42.5489 85.0318 42.5742 85.3105 42.5742C85.5893 42.5742 85.6484 42.5996 85.6484 42.7432C85.6484 42.8868 85.7076 42.9121 85.9863 42.9121C86.2651 42.9121 86.3242 42.9375 86.3242 43.0811C86.3242 43.2331 86.3833 43.25 86.8311 43.25C87.2788 43.25 87.3379 43.2669 87.3379 43.4189C87.3379 43.5879 87.397 43.5879 90.7168 43.5879C94.0366 43.5879 94.0957 43.5879 94.0957 43.4189C94.0957 43.2669 94.1548 43.25 94.7715 43.25C95.3881 43.25 95.4473 43.2331 95.4473 43.0811C95.4473 42.9375 95.5064 42.9121 95.7852 42.9121C96.0639 42.9121 96.123 42.8868 96.123 42.7432C96.123 42.6333 96.1822 42.5742 96.292 42.5742C96.4018 42.5742 96.4609 42.5151 96.4609 42.4053C96.4609 42.2617 96.5201 42.2363 96.7988 42.2363C97.0776 42.2363 97.1367 42.211 97.1367 42.0674C97.1367 41.9576 97.1958 41.8984 97.3057 41.8984C97.4155 41.8984 97.4746 41.8393 97.4746 41.7295C97.4746 41.6197 97.5337 41.5605 97.6436 41.5605C97.7534 41.5605 97.8125 41.5014 97.8125 41.3916C97.8125 41.2818 97.8716 41.2227 97.9814 41.2227C98.125 41.2227 98.1504 41.1635 98.1504 40.8848C98.1504 40.606 98.1757 40.5469 98.3193 40.5469C98.4291 40.5469 98.4883 40.4877 98.4883 40.3779C98.4883 40.2681 98.5474 40.209 98.6572 40.209C98.8093 40.209 98.8262 40.1499 98.8262 39.7021C98.8262 39.2544 98.8431 39.1953 98.9951 39.1953C99.1472 39.1953 99.1641 39.1362 99.1641 38.6885C99.1641 38.2408 99.181 38.1816 99.333 38.1816C99.4935 38.1816 99.502 38.1225 99.502 36.6611C99.502 35.1998 99.4935 35.1406 99.333 35.1406C99.181 35.1406 99.1641 35.0815 99.1641 34.6338C99.1641 34.1861 99.1472 34.127 98.9951 34.127C98.8515 34.127 98.8262 34.0678 98.8262 33.7891C98.8262 33.5103 98.8008 33.4512 98.6572 33.4512C98.5136 33.4512 98.4883 33.392 98.4883 33.1133C98.4883 32.8345 98.4629 32.7754 98.3193 32.7754C98.2095 32.7754 98.1504 32.7163 98.1504 32.6064C98.1504 32.4966 98.0913 32.4375 97.9814 32.4375C97.8378 32.4375 97.8125 32.3784 97.8125 32.0996C97.8125 31.8209 97.7872 31.7617 97.6436 31.7617C97.5337 31.7617 97.4746 31.7026 97.4746 31.5928C97.4746 31.4492 97.4155 31.4238 97.1367 31.4238C96.858 31.4238 96.7988 31.3985 96.7988 31.2549C96.7988 31.1451 96.7397 31.0859 96.6299 31.0859C96.5201 31.0859 96.4609 31.0268 96.4609 30.917C96.4609 30.7734 96.4018 30.748 96.123 30.748C95.8443 30.748 95.7852 30.7227 95.7852 30.5791C95.7852 30.4355 95.726 30.4102 95.4473 30.4102C95.1685 30.4102 95.1094 30.3848 95.1094 30.2412C95.1094 30.0892 95.0502 30.0723 94.6025 30.0723C94.1548 30.0723 94.0957 30.0554 94.0957 29.9033C94.0957 29.7344 94.0366 29.7344 90.8857 29.7344C87.7349 29.7344 87.6758 29.7344 87.6758 29.9033Z"
      fill="currentColor"
    />
<path
      d="M54.5625 85.3174C54.5625 85.4694 54.5034 85.4863 53.8867 85.4863C53.2701 85.4863 53.2109 85.5032 53.2109 85.6553C53.2109 85.7989 53.1518 85.8242 52.873 85.8242C52.5943 85.8242 52.5352 85.8496 52.5352 85.9932C52.5352 86.103 52.476 86.1621 52.3662 86.1621C52.2564 86.1621 52.1973 86.2212 52.1973 86.3311C52.1973 86.4747 52.1381 86.5 51.8594 86.5C51.5806 86.5 51.5215 86.5253 51.5215 86.6689C51.5215 86.7788 51.4624 86.8379 51.3525 86.8379C51.2427 86.8379 51.1836 86.897 51.1836 87.0068C51.1836 87.1167 51.1245 87.1758 51.0146 87.1758C50.871 87.1758 50.8457 87.2349 50.8457 87.5137C50.8457 87.7924 50.8204 87.8516 50.6768 87.8516C50.5669 87.8516 50.5078 87.9107 50.5078 88.0205C50.5078 88.1303 50.4487 88.1895 50.3389 88.1895C50.1953 88.1895 50.1699 88.2486 50.1699 88.5273C50.1699 88.8061 50.1446 88.8652 50.001 88.8652C49.8574 88.8652 49.832 88.9244 49.832 89.2031C49.832 89.4819 49.8067 89.541 49.6631 89.541C49.511 89.541 49.4941 89.6001 49.4941 90.0479C49.4941 90.4956 49.4772 90.5547 49.3252 90.5547C49.1647 90.5547 49.1562 90.6138 49.1562 91.9062C49.1562 93.1987 49.1647 93.2578 49.3252 93.2578C49.4772 93.2578 49.4941 93.3169 49.4941 93.9336C49.4941 94.5502 49.511 94.6094 49.6631 94.6094C49.8067 94.6094 49.832 94.6685 49.832 94.9473C49.832 95.226 49.8574 95.2852 50.001 95.2852C50.1446 95.2852 50.1699 95.3443 50.1699 95.623C50.1699 95.9018 50.1953 95.9609 50.3389 95.9609C50.4487 95.9609 50.5078 96.0201 50.5078 96.1299C50.5078 96.2397 50.5669 96.2988 50.6768 96.2988C50.7866 96.2988 50.8457 96.358 50.8457 96.4678C50.8457 96.5776 50.9048 96.6367 51.0146 96.6367C51.1245 96.6367 51.1836 96.6959 51.1836 96.8057C51.1836 96.9155 51.2427 96.9746 51.3525 96.9746C51.4624 96.9746 51.5215 97.0337 51.5215 97.1436C51.5215 97.2534 51.5806 97.3125 51.6904 97.3125C51.8002 97.3125 51.8594 97.3716 51.8594 97.4814C51.8594 97.5913 51.9185 97.6504 52.0283 97.6504C52.1381 97.6504 52.1973 97.7095 52.1973 97.8193C52.1973 97.9292 52.2564 97.9883 52.3662 97.9883C52.476 97.9883 52.5352 98.0474 52.5352 98.1572C52.5352 98.267 52.5943 98.3262 52.7041 98.3262C52.8477 98.3262 52.873 98.3853 52.873 98.6641C52.873 98.9428 52.8477 99.002 52.7041 99.002C52.5943 99.002 52.5352 99.0611 52.5352 99.1709C52.5352 99.2807 52.476 99.3398 52.3662 99.3398C52.2564 99.3398 52.1973 99.399 52.1973 99.5088C52.1973 99.6186 52.1381 99.6777 52.0283 99.6777C51.9185 99.6777 51.8594 99.7369 51.8594 99.8467C51.8594 99.9565 51.8002 100.016 51.6904 100.016C51.5806 100.016 51.5215 100.075 51.5215 100.185C51.5215 100.294 51.4624 100.354 51.3525 100.354C51.2427 100.354 51.1836 100.413 51.1836 100.522C51.1836 100.632 51.1245 100.691 51.0146 100.691C50.9048 100.691 50.8457 100.751 50.8457 100.86C50.8457 100.97 50.7866 101.029 50.6768 101.029C50.5332 101.029 50.5078 101.088 50.5078 101.367C50.5078 101.646 50.4825 101.705 50.3389 101.705C50.2291 101.705 50.1699 101.764 50.1699 101.874C50.1699 101.984 50.1108 102.043 50.001 102.043C49.8489 102.043 49.832 102.102 49.832 102.55C49.832 102.998 49.8151 103.057 49.6631 103.057C49.511 103.057 49.4941 103.116 49.4941 103.563C49.4941 104.011 49.4772 104.07 49.3252 104.07C49.1647 104.07 49.1562 104.129 49.1562 105.422C49.1562 106.714 49.1647 106.773 49.3252 106.773C49.4772 106.773 49.4941 106.833 49.4941 107.449C49.4941 108.066 49.511 108.125 49.6631 108.125C49.8067 108.125 49.832 108.184 49.832 108.463C49.832 108.742 49.8574 108.801 50.001 108.801C50.1446 108.801 50.1699 108.86 50.1699 109.139C50.1699 109.417 50.1953 109.477 50.3389 109.477C50.4487 109.477 50.5078 109.536 50.5078 109.646C50.5078 109.755 50.5669 109.814 50.6768 109.814C50.7866 109.814 50.8457 109.874 50.8457 109.983C50.8457 110.093 50.9048 110.152 51.0146 110.152C51.1245 110.152 51.1836 110.211 51.1836 110.321C51.1836 110.431 51.2427 110.49 51.3525 110.49C51.4624 110.49 51.5215 110.549 51.5215 110.659C51.5215 110.769 51.5806 110.828 51.6904 110.828C51.8002 110.828 51.8594 110.887 51.8594 110.997C51.8594 111.107 51.9185 111.166 52.0283 111.166C52.1381 111.166 52.1973 111.225 52.1973 111.335C52.1973 111.479 52.2564 111.504 52.5352 111.504C52.8139 111.504 52.873 111.529 52.873 111.673C52.873 111.816 52.9322 111.842 53.2109 111.842C53.4897 111.842 53.5488 111.867 53.5488 112.011C53.5488 112.163 53.608 112.18 54.2246 112.18C54.8413 112.18 54.9004 112.197 54.9004 112.349C54.9004 112.509 54.9595 112.518 56.083 112.518C57.2065 112.518 57.2656 112.509 57.2656 112.349C57.2656 112.197 57.3248 112.18 57.9414 112.18C58.5581 112.18 58.6172 112.163 58.6172 112.011C58.6172 111.867 58.6763 111.842 58.9551 111.842C59.2338 111.842 59.293 111.816 59.293 111.673C59.293 111.529 59.3521 111.504 59.6309 111.504C59.9096 111.504 59.9688 111.479 59.9688 111.335C59.9688 111.225 60.0279 111.166 60.1377 111.166C60.2475 111.166 60.3066 111.107 60.3066 110.997C60.3066 110.853 60.3658 110.828 60.6445 110.828C60.9233 110.828 60.9824 110.803 60.9824 110.659C60.9824 110.549 61.0416 110.49 61.1514 110.49C61.2612 110.49 61.3203 110.431 61.3203 110.321C61.3203 110.211 61.3794 110.152 61.4893 110.152C61.5991 110.152 61.6582 110.093 61.6582 109.983C61.6582 109.874 61.7173 109.814 61.8271 109.814C61.937 109.814 61.9961 109.755 61.9961 109.646C61.9961 109.536 62.0552 109.477 62.165 109.477C62.2749 109.477 62.334 109.417 62.334 109.308C62.334 109.198 62.3931 109.139 62.5029 109.139C62.6127 109.139 62.6719 109.08 62.6719 108.97C62.6719 108.826 62.731 108.801 63.0098 108.801C63.2885 108.801 63.3477 108.826 63.3477 108.97C63.3477 109.08 63.4068 109.139 63.5166 109.139C63.6264 109.139 63.6855 109.198 63.6855 109.308C63.6855 109.417 63.7447 109.477 63.8545 109.477C63.9643 109.477 64.0234 109.536 64.0234 109.646C64.0234 109.755 64.0826 109.814 64.1924 109.814C64.3022 109.814 64.3613 109.874 64.3613 109.983C64.3613 110.093 64.4205 110.152 64.5303 110.152C64.6401 110.152 64.6992 110.211 64.6992 110.321C64.6992 110.431 64.7583 110.49 64.8682 110.49C64.978 110.49 65.0371 110.549 65.0371 110.659C65.0371 110.769 65.0962 110.828 65.2061 110.828C65.3159 110.828 65.375 110.887 65.375 110.997C65.375 111.107 65.4341 111.166 65.5439 111.166C65.6538 111.166 65.7129 111.225 65.7129 111.335C65.7129 111.479 65.772 111.504 66.0508 111.504C66.3295 111.504 66.3887 111.529 66.3887 111.673C66.3887 111.816 66.4478 111.842 66.7266 111.842C67.0053 111.842 67.0645 111.867 67.0645 112.011C67.0645 112.163 67.1236 112.18 67.7402 112.18C68.3569 112.18 68.416 112.197 68.416 112.349C68.416 112.509 68.4751 112.518 69.5986 112.518C70.7221 112.518 70.7812 112.509 70.7812 112.349C70.7812 112.197 70.8404 112.18 71.457 112.18C72.0737 112.18 72.1328 112.163 72.1328 112.011C72.1328 111.867 72.1919 111.842 72.4707 111.842C72.7495 111.842 72.8086 111.816 72.8086 111.673C72.8086 111.529 72.8677 111.504 73.1465 111.504C73.4252 111.504 73.4844 111.479 73.4844 111.335C73.4844 111.225 73.5435 111.166 73.6533 111.166C73.7631 111.166 73.8223 111.107 73.8223 110.997C73.8223 110.887 73.8814 110.828 73.9912 110.828C74.101 110.828 74.1602 110.769 74.1602 110.659C74.1602 110.549 74.2193 110.49 74.3291 110.49C74.4389 110.49 74.498 110.431 74.498 110.321C74.498 110.211 74.5572 110.152 74.667 110.152C74.7768 110.152 74.8359 110.093 74.8359 109.983C74.8359 109.874 74.8951 109.814 75.0049 109.814C75.1147 109.814 75.1738 109.755 75.1738 109.646C75.1738 109.536 75.233 109.477 75.3428 109.477C75.4864 109.477 75.5117 109.417 75.5117 109.139C75.5117 108.86 75.5371 108.801 75.6807 108.801C75.8243 108.801 75.8496 108.742 75.8496 108.463C75.8496 108.184 75.875 108.125 76.0186 108.125C76.1706 108.125 76.1875 108.066 76.1875 107.618C76.1875 107.17 76.2044 107.111 76.3564 107.111C76.5169 107.111 76.5254 107.052 76.5254 105.591C76.5254 104.129 76.5169 104.07 76.3564 104.07C76.2044 104.07 76.1875 104.011 76.1875 103.395C76.1875 102.778 76.1706 102.719 76.0186 102.719C75.875 102.719 75.8496 102.66 75.8496 102.381C75.8496 102.102 75.8243 102.043 75.6807 102.043C75.5708 102.043 75.5117 101.984 75.5117 101.874C75.5117 101.764 75.4526 101.705 75.3428 101.705C75.1992 101.705 75.1738 101.646 75.1738 101.367C75.1738 101.088 75.1485 101.029 75.0049 101.029C74.8951 101.029 74.8359 100.97 74.8359 100.86C74.8359 100.751 74.7768 100.691 74.667 100.691C74.5572 100.691 74.498 100.632 74.498 100.522C74.498 100.413 74.4389 100.354 74.3291 100.354C74.2193 100.354 74.1602 100.294 74.1602 100.185C74.1602 100.075 74.101 100.016 73.9912 100.016C73.8814 100.016 73.8223 99.9565 73.8223 99.8467C73.8223 99.7369 73.7631 99.6777 73.6533 99.6777C73.5435 99.6777 73.4844 99.6186 73.4844 99.5088C73.4844 99.399 73.4252 99.3398 73.3154 99.3398C73.2056 99.3398 73.1465 99.2807 73.1465 99.1709C73.1465 99.0611 73.0874 99.002 72.9775 99.002C72.8677 99.002 72.8086 98.9428 72.8086 98.833C72.8086 98.7232 72.8677 98.6641 72.9775 98.6641C73.0874 98.6641 73.1465 98.6049 73.1465 98.4951C73.1465 98.3853 73.2056 98.3262 73.3154 98.3262C73.4252 98.3262 73.4844 98.267 73.4844 98.1572C73.4844 98.0474 73.5435 97.9883 73.6533 97.9883C73.7631 97.9883 73.8223 97.9292 73.8223 97.8193C73.8223 97.7095 73.8814 97.6504 73.9912 97.6504C74.101 97.6504 74.1602 97.5913 74.1602 97.4814C74.1602 97.3716 74.2193 97.3125 74.3291 97.3125C74.4389 97.3125 74.498 97.2534 74.498 97.1436C74.498 97.0337 74.5572 96.9746 74.667 96.9746C74.8106 96.9746 74.8359 96.9155 74.8359 96.6367C74.8359 96.358 74.8613 96.2988 75.0049 96.2988C75.1147 96.2988 75.1738 96.2397 75.1738 96.1299C75.1738 96.0201 75.233 95.9609 75.3428 95.9609C75.4864 95.9609 75.5117 95.9018 75.5117 95.623C75.5117 95.3443 75.5371 95.2852 75.6807 95.2852C75.8243 95.2852 75.8496 95.226 75.8496 94.9473C75.8496 94.6685 75.875 94.6094 76.0186 94.6094C76.1706 94.6094 76.1875 94.5502 76.1875 94.1025C76.1875 93.6548 76.2044 93.5957 76.3564 93.5957C76.5169 93.5957 76.5254 93.5366 76.5254 92.0752C76.5254 90.6138 76.5169 90.5547 76.3564 90.5547C76.2044 90.5547 76.1875 90.4956 76.1875 89.8789C76.1875 89.2623 76.1706 89.2031 76.0186 89.2031C75.875 89.2031 75.8496 89.144 75.8496 88.8652C75.8496 88.5865 75.8243 88.5273 75.6807 88.5273C75.5708 88.5273 75.5117 88.4682 75.5117 88.3584C75.5117 88.2486 75.4526 88.1895 75.3428 88.1895C75.1992 88.1895 75.1738 88.1303 75.1738 87.8516C75.1738 87.5728 75.1485 87.5137 75.0049 87.5137C74.8951 87.5137 74.8359 87.4545 74.8359 87.3447C74.8359 87.2349 74.7768 87.1758 74.667 87.1758C74.5572 87.1758 74.498 87.1167 74.498 87.0068C74.498 86.897 74.4389 86.8379 74.3291 86.8379C74.2193 86.8379 74.1602 86.7788 74.1602 86.6689C74.1602 86.5253 74.101 86.5 73.8223 86.5C73.5435 86.5 73.4844 86.4747 73.4844 86.3311C73.4844 86.2212 73.4252 86.1621 73.3154 86.1621C73.2056 86.1621 73.1465 86.103 73.1465 85.9932C73.1465 85.8496 73.0874 85.8242 72.8086 85.8242C72.5298 85.8242 72.4707 85.7989 72.4707 85.6553C72.4707 85.5032 72.4116 85.4863 71.7949 85.4863C71.1783 85.4863 71.1191 85.4694 71.1191 85.3174C71.1191 85.1569 71.06 85.1484 69.4297 85.1484C67.7994 85.1484 67.7402 85.1569 67.7402 85.3174C67.7402 85.4694 67.6811 85.4863 67.2334 85.4863C66.7857 85.4863 66.7266 85.5032 66.7266 85.6553C66.7266 85.7989 66.6674 85.8242 66.3887 85.8242C66.1099 85.8242 66.0508 85.8496 66.0508 85.9932C66.0508 86.103 65.9916 86.1621 65.8818 86.1621C65.772 86.1621 65.7129 86.2212 65.7129 86.3311C65.7129 86.4747 65.6538 86.5 65.375 86.5C65.0962 86.5 65.0371 86.5253 65.0371 86.6689C65.0371 86.7788 64.978 86.8379 64.8682 86.8379C64.7583 86.8379 64.6992 86.897 64.6992 87.0068C64.6992 87.1167 64.6401 87.1758 64.5303 87.1758C64.4205 87.1758 64.3613 87.2349 64.3613 87.3447C64.3613 87.4545 64.3022 87.5137 64.1924 87.5137C64.0826 87.5137 64.0234 87.5728 64.0234 87.6826C64.0234 87.7924 63.9643 87.8516 63.8545 87.8516C63.7447 87.8516 63.6855 87.9107 63.6855 88.0205C63.6855 88.1303 63.6264 88.1895 63.5166 88.1895C63.4068 88.1895 63.3477 88.2486 63.3477 88.3584C63.3477 88.4682 63.2885 88.5273 63.1787 88.5273C63.0689 88.5273 63.0098 88.5865 63.0098 88.6963C63.0098 88.8061 62.9506 88.8652 62.8408 88.8652C62.731 88.8652 62.6719 88.8061 62.6719 88.6963C62.6719 88.5865 62.6127 88.5273 62.5029 88.5273C62.3931 88.5273 62.334 88.4682 62.334 88.3584C62.334 88.2486 62.2749 88.1895 62.165 88.1895C62.0552 88.1895 61.9961 88.1303 61.9961 88.0205C61.9961 87.9107 61.937 87.8516 61.8271 87.8516C61.7173 87.8516 61.6582 87.7924 61.6582 87.6826C61.6582 87.5728 61.5991 87.5137 61.4893 87.5137C61.3794 87.5137 61.3203 87.4545 61.3203 87.3447C61.3203 87.2349 61.2612 87.1758 61.1514 87.1758C61.0416 87.1758 60.9824 87.1167 60.9824 87.0068C60.9824 86.897 60.9233 86.8379 60.8135 86.8379C60.7037 86.8379 60.6445 86.7788 60.6445 86.6689C60.6445 86.5253 60.5854 86.5 60.3066 86.5C60.0279 86.5 59.9688 86.4747 59.9688 86.3311C59.9688 86.2212 59.9096 86.1621 59.7998 86.1621C59.69 86.1621 59.6309 86.103 59.6309 85.9932C59.6309 85.8496 59.5717 85.8242 59.293 85.8242C59.0142 85.8242 58.9551 85.7989 58.9551 85.6553C58.9551 85.5032 58.8959 85.4863 58.4482 85.4863C58.0005 85.4863 57.9414 85.4694 57.9414 85.3174C57.9414 85.1569 57.8823 85.1484 56.252 85.1484C54.6216 85.1484 54.5625 85.1569 54.5625 85.3174Z"
      fill="currentColor"
    />
<path
      d="M102.543 85.3174C102.543 85.4694 102.484 85.4863 102.036 85.4863C101.588 85.4863 101.529 85.5032 101.529 85.6553C101.529 85.7989 101.47 85.8242 101.191 85.8242C100.913 85.8242 100.854 85.8496 100.854 85.9932C100.854 86.103 100.794 86.1621 100.685 86.1621C100.575 86.1621 100.516 86.2212 100.516 86.3311C100.516 86.4747 100.456 86.5 100.178 86.5C99.899 86.5 99.8398 86.5253 99.8398 86.6689C99.8398 86.7788 99.7807 86.8379 99.6709 86.8379C99.5611 86.8379 99.502 86.897 99.502 87.0068C99.502 87.1167 99.4428 87.1758 99.333 87.1758C99.2232 87.1758 99.1641 87.2349 99.1641 87.3447C99.1641 87.4545 99.1049 87.5137 98.9951 87.5137C98.8515 87.5137 98.8262 87.5728 98.8262 87.8516C98.8262 88.1303 98.8008 88.1895 98.6572 88.1895C98.5474 88.1895 98.4883 88.2486 98.4883 88.3584C98.4883 88.4682 98.4292 88.5273 98.3193 88.5273C98.1757 88.5273 98.1504 88.5865 98.1504 88.8652C98.1504 89.144 98.125 89.2031 97.9814 89.2031C97.8294 89.2031 97.8125 89.2623 97.8125 89.8789C97.8125 90.4956 97.7956 90.5547 97.6436 90.5547C97.4831 90.5547 97.4746 90.6138 97.4746 92.0752C97.4746 93.5366 97.4831 93.5957 97.6436 93.5957C97.7956 93.5957 97.8125 93.6548 97.8125 94.1025C97.8125 94.5502 97.8294 94.6094 97.9814 94.6094C98.125 94.6094 98.1504 94.6685 98.1504 94.9473C98.1504 95.226 98.1757 95.2852 98.3193 95.2852C98.4629 95.2852 98.4883 95.3443 98.4883 95.623C98.4883 95.9018 98.5136 95.9609 98.6572 95.9609C98.767 95.9609 98.8262 96.0201 98.8262 96.1299C98.8262 96.2397 98.8853 96.2988 98.9951 96.2988C99.1387 96.2988 99.1641 96.358 99.1641 96.6367C99.1641 96.9155 99.1894 96.9746 99.333 96.9746C99.4428 96.9746 99.502 97.0337 99.502 97.1436C99.502 97.2534 99.5611 97.3125 99.6709 97.3125C99.7807 97.3125 99.8398 97.3716 99.8398 97.4814C99.8398 97.5913 99.899 97.6504 100.009 97.6504C100.119 97.6504 100.178 97.7095 100.178 97.8193C100.178 97.9292 100.237 97.9883 100.347 97.9883C100.456 97.9883 100.516 98.0474 100.516 98.1572C100.516 98.267 100.575 98.3262 100.685 98.3262C100.794 98.3262 100.854 98.3853 100.854 98.4951C100.854 98.6049 100.913 98.6641 101.022 98.6641C101.132 98.6641 101.191 98.7232 101.191 98.833C101.191 98.9428 101.132 99.002 101.022 99.002C100.913 99.002 100.854 99.0611 100.854 99.1709C100.854 99.2807 100.794 99.3398 100.685 99.3398C100.575 99.3398 100.516 99.399 100.516 99.5088C100.516 99.6186 100.456 99.6777 100.347 99.6777C100.237 99.6777 100.178 99.7369 100.178 99.8467C100.178 99.9565 100.119 100.016 100.009 100.016C99.899 100.016 99.8398 100.075 99.8398 100.185C99.8398 100.294 99.7807 100.354 99.6709 100.354C99.5611 100.354 99.502 100.413 99.502 100.522C99.502 100.632 99.4428 100.691 99.333 100.691C99.2232 100.691 99.1641 100.751 99.1641 100.86C99.1641 100.97 99.1049 101.029 98.9951 101.029C98.8515 101.029 98.8262 101.088 98.8262 101.367C98.8262 101.646 98.8008 101.705 98.6572 101.705C98.5474 101.705 98.4883 101.764 98.4883 101.874C98.4883 101.984 98.4292 102.043 98.3193 102.043C98.1757 102.043 98.1504 102.102 98.1504 102.381C98.1504 102.66 98.125 102.719 97.9814 102.719C97.8294 102.719 97.8125 102.778 97.8125 103.395C97.8125 104.011 97.7956 104.07 97.6436 104.07C97.4831 104.07 97.4746 104.129 97.4746 105.591C97.4746 107.052 97.4831 107.111 97.6436 107.111C97.7956 107.111 97.8125 107.17 97.8125 107.618C97.8125 108.066 97.8294 108.125 97.9814 108.125C98.125 108.125 98.1504 108.184 98.1504 108.463C98.1504 108.742 98.1757 108.801 98.3193 108.801C98.4629 108.801 98.4883 108.86 98.4883 109.139C98.4883 109.417 98.5136 109.477 98.6572 109.477C98.767 109.477 98.8262 109.536 98.8262 109.646C98.8262 109.755 98.8853 109.814 98.9951 109.814C99.1049 109.814 99.1641 109.874 99.1641 109.983C99.1641 110.093 99.2232 110.152 99.333 110.152C99.4428 110.152 99.502 110.211 99.502 110.321C99.502 110.431 99.5611 110.49 99.6709 110.49C99.7807 110.49 99.8398 110.549 99.8398 110.659C99.8398 110.769 99.899 110.828 100.009 110.828C100.119 110.828 100.178 110.887 100.178 110.997C100.178 111.107 100.237 111.166 100.347 111.166C100.456 111.166 100.516 111.225 100.516 111.335C100.516 111.479 100.575 111.504 100.854 111.504C101.132 111.504 101.191 111.529 101.191 111.673C101.191 111.816 101.251 111.842 101.529 111.842C101.808 111.842 101.867 111.867 101.867 112.011C101.867 112.163 101.926 112.18 102.543 112.18C103.16 112.18 103.219 112.197 103.219 112.349C103.219 112.509 103.278 112.518 104.401 112.518C105.525 112.518 105.584 112.509 105.584 112.349C105.584 112.197 105.643 112.18 106.26 112.18C106.876 112.18 106.936 112.163 106.936 112.011C106.936 111.867 106.995 111.842 107.273 111.842C107.552 111.842 107.611 111.816 107.611 111.673C107.611 111.529 107.67 111.504 107.949 111.504C108.228 111.504 108.287 111.479 108.287 111.335C108.287 111.225 108.346 111.166 108.456 111.166C108.566 111.166 108.625 111.107 108.625 110.997C108.625 110.887 108.684 110.828 108.794 110.828C108.904 110.828 108.963 110.769 108.963 110.659C108.963 110.549 109.022 110.49 109.132 110.49C109.242 110.49 109.301 110.431 109.301 110.321C109.301 110.211 109.36 110.152 109.47 110.152C109.58 110.152 109.639 110.093 109.639 109.983C109.639 109.874 109.698 109.814 109.808 109.814C109.917 109.814 109.977 109.755 109.977 109.646C109.977 109.536 110.036 109.477 110.146 109.477C110.255 109.477 110.314 109.417 110.314 109.308C110.314 109.198 110.374 109.139 110.483 109.139C110.593 109.139 110.652 109.08 110.652 108.97C110.652 108.826 110.711 108.801 110.99 108.801C111.269 108.801 111.328 108.826 111.328 108.97C111.328 109.08 111.387 109.139 111.497 109.139C111.607 109.139 111.666 109.198 111.666 109.308C111.666 109.417 111.725 109.477 111.835 109.477C111.945 109.477 112.004 109.536 112.004 109.646C112.004 109.755 112.063 109.814 112.173 109.814C112.283 109.814 112.342 109.874 112.342 109.983C112.342 110.093 112.401 110.152 112.511 110.152C112.621 110.152 112.68 110.211 112.68 110.321C112.68 110.431 112.739 110.49 112.849 110.49C112.958 110.49 113.018 110.549 113.018 110.659C113.018 110.803 113.077 110.828 113.355 110.828C113.634 110.828 113.693 110.853 113.693 110.997C113.693 111.107 113.752 111.166 113.862 111.166C113.972 111.166 114.031 111.225 114.031 111.335C114.031 111.479 114.09 111.504 114.369 111.504C114.648 111.504 114.707 111.529 114.707 111.673C114.707 111.816 114.766 111.842 115.045 111.842C115.324 111.842 115.383 111.867 115.383 112.011C115.383 112.163 115.442 112.18 116.059 112.18C116.675 112.18 116.734 112.197 116.734 112.349C116.734 112.509 116.794 112.518 117.917 112.518C119.04 112.518 119.1 112.509 119.1 112.349C119.1 112.197 119.159 112.18 119.775 112.18C120.392 112.18 120.451 112.163 120.451 112.011C120.451 111.867 120.51 111.842 120.789 111.842C121.068 111.842 121.127 111.816 121.127 111.673C121.127 111.529 121.186 111.504 121.465 111.504C121.744 111.504 121.803 111.479 121.803 111.335C121.803 111.225 121.862 111.166 121.972 111.166C122.081 111.166 122.141 111.107 122.141 110.997C122.141 110.887 122.2 110.828 122.31 110.828C122.419 110.828 122.479 110.769 122.479 110.659C122.479 110.549 122.538 110.49 122.647 110.49C122.757 110.49 122.816 110.431 122.816 110.321C122.816 110.211 122.876 110.152 122.985 110.152C123.095 110.152 123.154 110.093 123.154 109.983C123.154 109.874 123.213 109.814 123.323 109.814C123.433 109.814 123.492 109.755 123.492 109.646C123.492 109.536 123.551 109.477 123.661 109.477C123.805 109.477 123.83 109.417 123.83 109.139C123.83 108.86 123.855 108.801 123.999 108.801C124.143 108.801 124.168 108.742 124.168 108.463C124.168 108.184 124.193 108.125 124.337 108.125C124.489 108.125 124.506 108.066 124.506 107.449C124.506 106.833 124.523 106.773 124.675 106.773C124.835 106.773 124.844 106.714 124.844 105.422C124.844 104.129 124.835 104.07 124.675 104.07C124.523 104.07 124.506 104.011 124.506 103.563C124.506 103.116 124.489 103.057 124.337 103.057C124.185 103.057 124.168 102.998 124.168 102.55C124.168 102.102 124.151 102.043 123.999 102.043C123.889 102.043 123.83 101.984 123.83 101.874C123.83 101.764 123.771 101.705 123.661 101.705C123.518 101.705 123.492 101.646 123.492 101.367C123.492 101.088 123.467 101.029 123.323 101.029C123.213 101.029 123.154 100.97 123.154 100.86C123.154 100.751 123.095 100.691 122.985 100.691C122.876 100.691 122.816 100.632 122.816 100.522C122.816 100.413 122.757 100.354 122.647 100.354C122.538 100.354 122.479 100.294 122.479 100.185C122.479 100.075 122.419 100.016 122.31 100.016C122.2 100.016 122.141 99.9565 122.141 99.8467C122.141 99.7369 122.081 99.6777 121.972 99.6777C121.862 99.6777 121.803 99.6186 121.803 99.5088C121.803 99.399 121.744 99.3398 121.634 99.3398C121.524 99.3398 121.465 99.2807 121.465 99.1709C121.465 99.0611 121.406 99.002 121.296 99.002C121.152 99.002 121.127 98.9428 121.127 98.6641C121.127 98.3853 121.152 98.3262 121.296 98.3262C121.406 98.3262 121.465 98.267 121.465 98.1572C121.465 98.0474 121.524 97.9883 121.634 97.9883C121.744 97.9883 121.803 97.9292 121.803 97.8193C121.803 97.7095 121.862 97.6504 121.972 97.6504C122.081 97.6504 122.141 97.5913 122.141 97.4814C122.141 97.3716 122.2 97.3125 122.31 97.3125C122.419 97.3125 122.479 97.2534 122.479 97.1436C122.479 97.0337 122.538 96.9746 122.647 96.9746C122.757 96.9746 122.816 96.9155 122.816 96.8057C122.816 96.6959 122.876 96.6367 122.985 96.6367C123.095 96.6367 123.154 96.5776 123.154 96.4678C123.154 96.358 123.213 96.2988 123.323 96.2988C123.433 96.2988 123.492 96.2397 123.492 96.1299C123.492 96.0201 123.551 95.9609 123.661 95.9609C123.805 95.9609 123.83 95.9018 123.83 95.623C123.83 95.3443 123.855 95.2852 123.999 95.2852C124.143 95.2852 124.168 95.226 124.168 94.9473C124.168 94.6685 124.193 94.6094 124.337 94.6094C124.489 94.6094 124.506 94.5502 124.506 93.9336C124.506 93.3169 124.523 93.2578 124.675 93.2578C124.835 93.2578 124.844 93.1987 124.844 91.9062C124.844 90.6138 124.835 90.5547 124.675 90.5547C124.523 90.5547 124.506 90.4956 124.506 90.0479C124.506 89.6001 124.489 89.541 124.337 89.541C124.193 89.541 124.168 89.4819 124.168 89.2031C124.168 88.9244 124.143 88.8652 123.999 88.8652C123.855 88.8652 123.83 88.8061 123.83 88.5273C123.83 88.2486 123.805 88.1895 123.661 88.1895C123.551 88.1895 123.492 88.1303 123.492 88.0205C123.492 87.9107 123.433 87.8516 123.323 87.8516C123.18 87.8516 123.154 87.7924 123.154 87.5137C123.154 87.2349 123.129 87.1758 122.985 87.1758C122.876 87.1758 122.816 87.1167 122.816 87.0068C122.816 86.8632 122.757 86.8379 122.479 86.8379C122.2 86.8379 122.141 86.8125 122.141 86.6689C122.141 86.5591 122.081 86.5 121.972 86.5C121.862 86.5 121.803 86.4409 121.803 86.3311C121.803 86.2212 121.744 86.1621 121.634 86.1621C121.524 86.1621 121.465 86.103 121.465 85.9932C121.465 85.8411 121.406 85.8242 120.958 85.8242C120.51 85.8242 120.451 85.8073 120.451 85.6553C120.451 85.5032 120.392 85.4863 119.944 85.4863C119.497 85.4863 119.437 85.4694 119.437 85.3174C119.437 85.1569 119.378 85.1484 117.748 85.1484C116.118 85.1484 116.059 85.1569 116.059 85.3174C116.059 85.4694 115.999 85.4863 115.552 85.4863C115.104 85.4863 115.045 85.5032 115.045 85.6553C115.045 85.7989 114.986 85.8242 114.707 85.8242C114.428 85.8242 114.369 85.8496 114.369 85.9932C114.369 86.103 114.31 86.1621 114.2 86.1621C114.09 86.1621 114.031 86.2212 114.031 86.3311C114.031 86.4747 113.972 86.5 113.693 86.5C113.415 86.5 113.355 86.5253 113.355 86.6689C113.355 86.7788 113.296 86.8379 113.187 86.8379C113.077 86.8379 113.018 86.897 113.018 87.0068C113.018 87.1167 112.958 87.1758 112.849 87.1758C112.739 87.1758 112.68 87.2349 112.68 87.3447C112.68 87.4545 112.621 87.5137 112.511 87.5137C112.401 87.5137 112.342 87.5728 112.342 87.6826C112.342 87.7924 112.283 87.8516 112.173 87.8516C112.063 87.8516 112.004 87.9107 112.004 88.0205C112.004 88.1303 111.945 88.1895 111.835 88.1895C111.725 88.1895 111.666 88.2486 111.666 88.3584C111.666 88.4682 111.607 88.5273 111.497 88.5273C111.387 88.5273 111.328 88.5865 111.328 88.6963C111.328 88.8061 111.269 88.8652 111.159 88.8652C111.049 88.8652 110.99 88.8061 110.99 88.6963C110.99 88.5865 110.931 88.5273 110.821 88.5273C110.711 88.5273 110.652 88.4682 110.652 88.3584C110.652 88.2486 110.593 88.1895 110.483 88.1895C110.374 88.1895 110.314 88.1303 110.314 88.0205C110.314 87.9107 110.255 87.8516 110.146 87.8516C110.036 87.8516 109.977 87.7924 109.977 87.6826C109.977 87.5728 109.917 87.5137 109.808 87.5137C109.698 87.5137 109.639 87.4545 109.639 87.3447C109.639 87.2349 109.58 87.1758 109.47 87.1758C109.36 87.1758 109.301 87.1167 109.301 87.0068C109.301 86.897 109.242 86.8379 109.132 86.8379C109.022 86.8379 108.963 86.7788 108.963 86.6689C108.963 86.5253 108.904 86.5 108.625 86.5C108.346 86.5 108.287 86.4747 108.287 86.3311C108.287 86.2212 108.228 86.1621 108.118 86.1621C108.008 86.1621 107.949 86.103 107.949 85.9932C107.949 85.8496 107.89 85.8242 107.611 85.8242C107.333 85.8242 107.273 85.7989 107.273 85.6553C107.273 85.5032 107.214 85.4863 106.767 85.4863C106.319 85.4863 106.26 85.4694 106.26 85.3174C106.26 85.1569 106.201 85.1484 104.401 85.1484C102.602 85.1484 102.543 85.1569 102.543 85.3174Z"
      fill="currentColor"
    />
<path
      d="M83.959 120.12C83.959 120.281 83.8999 120.289 82.7764 120.289C81.6529 120.289 81.5937 120.298 81.5937 120.458C81.5937 120.61 81.5346 120.627 80.918 120.627C80.3013 120.627 80.2422 120.644 80.2422 120.796C80.2422 120.948 80.1831 120.965 79.7354 120.965C79.2876 120.965 79.2285 120.982 79.2285 121.134C79.2285 121.286 79.1694 121.303 78.7217 121.303C78.274 121.303 78.2148 121.32 78.2148 121.472C78.2148 121.624 78.1557 121.641 77.708 121.641C77.2603 121.641 77.2012 121.658 77.2012 121.81C77.2012 121.953 77.142 121.979 76.8633 121.979C76.5845 121.979 76.5254 122.004 76.5254 122.147C76.5254 122.291 76.4663 122.316 76.1875 122.316C75.9087 122.316 75.8496 122.342 75.8496 122.485C75.8496 122.629 75.7905 122.654 75.5117 122.654C75.233 122.654 75.1738 122.68 75.1738 122.823C75.1738 122.967 75.1147 122.992 74.8359 122.992C74.5572 122.992 74.498 123.018 74.498 123.161C74.498 123.305 74.4389 123.33 74.1602 123.33C73.8814 123.33 73.8223 123.355 73.8223 123.499C73.8223 123.643 73.7631 123.668 73.4844 123.668C73.2056 123.668 73.1465 123.693 73.1465 123.837C73.1465 123.947 73.0874 124.006 72.9775 124.006C72.8677 124.006 72.8086 124.065 72.8086 124.175C72.8086 124.318 72.7495 124.344 72.4707 124.344C72.1919 124.344 72.1328 124.369 72.1328 124.513C72.1328 124.623 72.0737 124.682 71.9639 124.682C71.8541 124.682 71.7949 124.741 71.7949 124.851C71.7949 124.96 71.7358 125.02 71.626 125.02C71.5162 125.02 71.457 125.079 71.457 125.188C71.457 125.332 71.3979 125.357 71.1191 125.357C70.8404 125.357 70.7812 125.383 70.7812 125.526C70.7812 125.636 70.7221 125.695 70.6123 125.695C70.5025 125.695 70.4434 125.754 70.4434 125.864C70.4434 125.974 70.3842 126.033 70.2744 126.033C70.1646 126.033 70.1055 126.092 70.1055 126.202C70.1055 126.312 70.0463 126.371 69.9365 126.371C69.8267 126.371 69.7676 126.43 69.7676 126.54C69.7676 126.65 69.7084 126.709 69.5986 126.709C69.4888 126.709 69.4297 126.768 69.4297 126.878C69.4297 126.988 69.3706 127.047 69.2607 127.047C69.1509 127.047 69.0918 127.106 69.0918 127.216C69.0918 127.326 69.0327 127.385 68.9229 127.385C68.813 127.385 68.7539 127.444 68.7539 127.554C68.7539 127.664 68.6948 127.723 68.585 127.723C68.4751 127.723 68.416 127.782 68.416 127.892C68.416 128.001 68.3569 128.061 68.2471 128.061C68.1373 128.061 68.0781 128.12 68.0781 128.229C68.0781 128.339 68.019 128.398 67.9092 128.398C67.7656 128.398 67.7402 128.458 67.7402 128.736C67.7402 129.015 67.7149 129.074 67.5713 129.074C67.4277 129.074 67.4023 129.133 67.4023 129.412C67.4023 129.691 67.377 129.75 67.2334 129.75C67.0813 129.75 67.0645 129.809 67.0645 130.426C67.0645 131.042 67.0476 131.102 66.8955 131.102C66.735 131.102 66.7266 131.161 66.7266 132.453C66.7266 133.746 66.735 133.805 66.8955 133.805C67.0476 133.805 67.0645 133.864 67.0645 134.312C67.0645 134.759 67.0813 134.818 67.2334 134.818C67.3854 134.818 67.4023 134.877 67.4023 135.325C67.4023 135.773 67.4192 135.832 67.5713 135.832C67.6811 135.832 67.7402 135.891 67.7402 136.001C67.7402 136.111 67.7994 136.17 67.9092 136.17C68.0528 136.17 68.0781 136.229 68.0781 136.508C68.0781 136.787 68.1035 136.846 68.2471 136.846C68.3569 136.846 68.416 136.905 68.416 137.015C68.416 137.124 68.4751 137.184 68.585 137.184C68.6948 137.184 68.7539 137.243 68.7539 137.353C68.7539 137.462 68.813 137.521 68.9229 137.521C69.0327 137.521 69.0918 137.581 69.0918 137.69C69.0918 137.834 69.1509 137.859 69.4297 137.859C69.7084 137.859 69.7676 137.885 69.7676 138.028C69.7676 138.138 69.8267 138.197 69.9365 138.197C70.0463 138.197 70.1055 138.256 70.1055 138.366C70.1055 138.51 70.1646 138.535 70.4434 138.535C70.7221 138.535 70.7812 138.56 70.7812 138.704C70.7812 138.856 70.8404 138.873 71.2881 138.873C71.7358 138.873 71.7949 138.89 71.7949 139.042C71.7949 139.202 71.8541 139.211 73.6533 139.211C75.4526 139.211 75.5117 139.202 75.5117 139.042C75.5117 138.89 75.5708 138.873 76.0186 138.873C76.4663 138.873 76.5254 138.856 76.5254 138.704C76.5254 138.56 76.5845 138.535 76.8633 138.535C77.142 138.535 77.2012 138.51 77.2012 138.366C77.2012 138.223 77.2603 138.197 77.5391 138.197C77.8178 138.197 77.877 138.172 77.877 138.028C77.877 137.919 77.9361 137.859 78.0459 137.859C78.1557 137.859 78.2148 137.8 78.2148 137.69C78.2148 137.581 78.274 137.521 78.3838 137.521C78.4936 137.521 78.5527 137.462 78.5527 137.353C78.5527 137.243 78.6119 137.184 78.7217 137.184C78.8315 137.184 78.8906 137.124 78.8906 137.015C78.8906 136.905 78.9498 136.846 79.0596 136.846C79.1694 136.846 79.2285 136.787 79.2285 136.677C79.2285 136.567 79.2876 136.508 79.3975 136.508C79.5073 136.508 79.5664 136.449 79.5664 136.339C79.5664 136.195 79.6255 136.17 79.9043 136.17C80.1831 136.17 80.2422 136.145 80.2422 136.001C80.2422 135.891 80.3013 135.832 80.4111 135.832C80.5209 135.832 80.5801 135.773 80.5801 135.663C80.5801 135.519 80.6392 135.494 80.918 135.494C81.1967 135.494 81.2559 135.469 81.2559 135.325C81.2559 135.182 81.315 135.156 81.5937 135.156C81.8725 135.156 81.9316 135.131 81.9316 134.987C81.9316 134.844 81.9908 134.818 82.2695 134.818C82.5483 134.818 82.6074 134.793 82.6074 134.649C82.6074 134.497 82.6666 134.48 83.1143 134.48C83.562 134.48 83.6211 134.464 83.6211 134.312C83.6211 134.159 83.6802 134.143 84.2969 134.143C84.9135 134.143 84.9727 134.126 84.9727 133.974C84.9727 133.813 85.0318 133.805 87 133.805C88.9682 133.805 89.0273 133.813 89.0273 133.974C89.0273 134.126 89.0865 134.143 89.7031 134.143C90.3198 134.143 90.3789 134.159 90.3789 134.312C90.3789 134.464 90.438 134.48 90.8857 134.48C91.3334 134.48 91.3926 134.497 91.3926 134.649C91.3926 134.793 91.4517 134.818 91.7305 134.818C92.0092 134.818 92.0684 134.844 92.0684 134.987C92.0684 135.131 92.1275 135.156 92.4062 135.156C92.685 135.156 92.7441 135.182 92.7441 135.325C92.7441 135.469 92.8033 135.494 93.082 135.494C93.3608 135.494 93.4199 135.519 93.4199 135.663C93.4199 135.773 93.4791 135.832 93.5889 135.832C93.6987 135.832 93.7578 135.891 93.7578 136.001C93.7578 136.145 93.8169 136.17 94.0957 136.17C94.3745 136.17 94.4336 136.195 94.4336 136.339C94.4336 136.449 94.4927 136.508 94.6025 136.508C94.7124 136.508 94.7715 136.567 94.7715 136.677C94.7715 136.787 94.8306 136.846 94.9404 136.846C95.0502 136.846 95.1094 136.905 95.1094 137.015C95.1094 137.124 95.1685 137.184 95.2783 137.184C95.3881 137.184 95.4473 137.243 95.4473 137.353C95.4473 137.462 95.5064 137.521 95.6162 137.521C95.726 137.521 95.7852 137.581 95.7852 137.69C95.7852 137.8 95.8443 137.859 95.9541 137.859C96.0639 137.859 96.123 137.919 96.123 138.028C96.123 138.172 96.1822 138.197 96.4609 138.197C96.7397 138.197 96.7988 138.223 96.7988 138.366C96.7988 138.51 96.858 138.535 97.1367 138.535C97.4155 138.535 97.4746 138.56 97.4746 138.704C97.4746 138.856 97.5337 138.873 97.9814 138.873C98.4291 138.873 98.4883 138.89 98.4883 139.042C98.4883 139.202 98.5474 139.211 100.347 139.211C102.146 139.211 102.205 139.202 102.205 139.042C102.205 138.89 102.264 138.873 102.712 138.873C103.16 138.873 103.219 138.856 103.219 138.704C103.219 138.56 103.278 138.535 103.557 138.535C103.835 138.535 103.895 138.51 103.895 138.366C103.895 138.256 103.954 138.197 104.063 138.197C104.173 138.197 104.232 138.138 104.232 138.028C104.232 137.885 104.292 137.859 104.57 137.859C104.849 137.859 104.908 137.834 104.908 137.69C104.908 137.581 104.967 137.521 105.077 137.521C105.187 137.521 105.246 137.462 105.246 137.353C105.246 137.243 105.305 137.184 105.415 137.184C105.525 137.184 105.584 137.124 105.584 137.015C105.584 136.905 105.643 136.846 105.753 136.846C105.897 136.846 105.922 136.787 105.922 136.508C105.922 136.229 105.947 136.17 106.091 136.17C106.234 136.17 106.26 136.111 106.26 135.832C106.26 135.553 106.285 135.494 106.429 135.494C106.572 135.494 106.598 135.435 106.598 135.156C106.598 134.877 106.623 134.818 106.767 134.818C106.919 134.818 106.936 134.759 106.936 134.312C106.936 133.864 106.952 133.805 107.104 133.805C107.265 133.805 107.273 133.746 107.273 132.453C107.273 131.161 107.265 131.102 107.104 131.102C106.952 131.102 106.936 131.042 106.936 130.426C106.936 129.809 106.919 129.75 106.767 129.75C106.623 129.75 106.598 129.691 106.598 129.412C106.598 129.133 106.572 129.074 106.429 129.074C106.285 129.074 106.26 129.015 106.26 128.736C106.26 128.458 106.234 128.398 106.091 128.398C105.981 128.398 105.922 128.339 105.922 128.229C105.922 128.12 105.863 128.061 105.753 128.061C105.643 128.061 105.584 128.001 105.584 127.892C105.584 127.782 105.525 127.723 105.415 127.723C105.305 127.723 105.246 127.664 105.246 127.554C105.246 127.444 105.187 127.385 105.077 127.385C104.967 127.385 104.908 127.326 104.908 127.216C104.908 127.106 104.849 127.047 104.739 127.047C104.629 127.047 104.57 126.988 104.57 126.878C104.57 126.768 104.511 126.709 104.401 126.709C104.292 126.709 104.232 126.65 104.232 126.54C104.232 126.43 104.173 126.371 104.063 126.371C103.954 126.371 103.895 126.312 103.895 126.202C103.895 126.092 103.835 126.033 103.726 126.033C103.616 126.033 103.557 125.974 103.557 125.864C103.557 125.754 103.498 125.695 103.388 125.695C103.278 125.695 103.219 125.636 103.219 125.526C103.219 125.383 103.16 125.357 102.881 125.357C102.602 125.357 102.543 125.332 102.543 125.188C102.543 125.079 102.484 125.02 102.374 125.02C102.264 125.02 102.205 124.96 102.205 124.851C102.205 124.741 102.146 124.682 102.036 124.682C101.926 124.682 101.867 124.623 101.867 124.513C101.867 124.369 101.808 124.344 101.529 124.344C101.251 124.344 101.191 124.318 101.191 124.175C101.191 124.065 101.132 124.006 101.022 124.006C100.913 124.006 100.854 123.947 100.854 123.837C100.854 123.693 100.794 123.668 100.516 123.668C100.237 123.668 100.178 123.643 100.178 123.499C100.178 123.355 100.119 123.33 99.8398 123.33C99.5611 123.33 99.502 123.305 99.502 123.161C99.502 123.018 99.4428 122.992 99.1641 122.992C98.8853 122.992 98.8262 122.967 98.8262 122.823C98.8262 122.68 98.767 122.654 98.4883 122.654C98.2095 122.654 98.1504 122.629 98.1504 122.485C98.1504 122.342 98.0913 122.316 97.8125 122.316C97.5337 122.316 97.4746 122.291 97.4746 122.147C97.4746 122.004 97.4155 121.979 97.1367 121.979C96.858 121.979 96.7988 121.953 96.7988 121.81C96.7988 121.658 96.7397 121.641 96.292 121.641C95.8443 121.641 95.7852 121.624 95.7852 121.472C95.7852 121.32 95.726 121.303 95.2783 121.303C94.8306 121.303 94.7715 121.286 94.7715 121.134C94.7715 120.982 94.7124 120.965 94.2646 120.965C93.8169 120.965 93.7578 120.948 93.7578 120.796C93.7578 120.644 93.6987 120.627 93.082 120.627C92.4654 120.627 92.4062 120.61 92.4062 120.458C92.4062 120.298 92.3471 120.289 91.2236 120.289C90.1001 120.289 90.041 120.281 90.041 120.12C90.041 119.951 89.9819 119.951 87 119.951C84.0181 119.951 83.959 119.951 83.959 120.12Z"
      fill="currentColor"
    />
</g>
<defs>
<clipPath id="clip0_1564_12329">
<rect width="173" height="173" fill="white" transform="translate(0.5)" />
</clipPath>
</defs>
</svg>
